<?xml version="1.0" encoding="UTF-8" standalone="no"?>
<!-- Created with Inkscape (http://www.inkscape.org/) -->

<svg
   version="1.1"
   id="svg1"
   width="377.95334"
   height="127.268"
   viewBox="0 0 377.95334 127.268"
   sodipodi:docname="lesnina-xxxl.ai"
   xmlns:inkscape="http://www.inkscape.org/namespaces/inkscape"
   xmlns:sodipodi="http://sodipodi.sourceforge.net/DTD/sodipodi-0.dtd"
   xmlns="http://www.w3.org/2000/svg"
   xmlns:svg="http://www.w3.org/2000/svg">
  <defs
     id="defs1">
    <clipPath
       clipPathUnits="userSpaceOnUse"
       id="clipPath4">
      <path
         d="M 0,95.451 H 283.465 V 0 H 0 Z"
         transform="translate(-13.307901,-84.103702)"
         id="path4" />
    </clipPath>
    <clipPath
       clipPathUnits="userSpaceOnUse"
       id="clipPath6">
      <path
         d="M 0,95.451 H 283.465 V 0 H 0 Z"
         transform="translate(-132.5032,-83.882702)"
         id="path6" />
    </clipPath>
    <clipPath
       clipPathUnits="userSpaceOnUse"
       id="clipPath8">
      <path
         d="M 0,95.451 H 283.465 V 0 H 0 Z"
         transform="translate(-71.125802,-72.604202)"
         id="path8" />
    </clipPath>
    <clipPath
       clipPathUnits="userSpaceOnUse"
       id="clipPath10">
      <path
         d="M 0,95.451 H 283.465 V 0 H 0 Z"
         transform="translate(-106.803,-71.723002)"
         id="path10" />
    </clipPath>
    <clipPath
       clipPathUnits="userSpaceOnUse"
       id="clipPath12">
      <path
         d="M 0,95.451 H 283.465 V 0 H 0 Z"
         transform="translate(-161.7012,-71.722002)"
         id="path12" />
    </clipPath>
    <clipPath
       clipPathUnits="userSpaceOnUse"
       id="clipPath14">
      <path
         d="M 0,95.451 H 283.465 V 0 H 0 Z"
         transform="translate(-134.0112,-72.775502)"
         id="path14" />
    </clipPath>
    <clipPath
       clipPathUnits="userSpaceOnUse"
       id="clipPath16">
      <path
         d="M 0,95.451 H 283.465 V 0 H 0 Z"
         transform="translate(-38.857801,-59.690501)"
         id="path16" />
    </clipPath>
    <clipPath
       clipPathUnits="userSpaceOnUse"
       id="clipPath18">
      <path
         d="M 0,95.451 H 283.465 V 0 H 0 Z"
         transform="translate(-204.96421,-46.640001)"
         id="path18" />
    </clipPath>
    <clipPath
       clipPathUnits="userSpaceOnUse"
       id="clipPath20">
      <path
         d="M 0,95.451 H 283.465 V 0 H 0 Z"
         id="path20" />
    </clipPath>
    <clipPath
       clipPathUnits="userSpaceOnUse"
       id="clipPath22">
      <path
         d="M 0,95.451 H 283.465 V 0 H 0 Z"
         transform="translate(-161.9871,-0.24950251)"
         id="path22" />
    </clipPath>
    <clipPath
       clipPathUnits="userSpaceOnUse"
       id="clipPath24">
      <path
         d="M 0,95.451 H 283.465 V 0 H 0 Z"
         transform="translate(-249.72481,-5.0543026)"
         id="path24" />
    </clipPath>
    <clipPath
       clipPathUnits="userSpaceOnUse"
       id="clipPath26">
      <path
         d="M 0,95.451 H 283.465 V 0 H 0 Z"
         transform="translate(-161.2759,0.0014025)"
         id="path26" />
    </clipPath>
    <clipPath
       clipPathUnits="userSpaceOnUse"
       id="clipPath28">
      <path
         d="M 0,95.451 H 283.465 V 0 H 0 Z"
         transform="translate(-185.36991,-9.9276002)"
         id="path28" />
    </clipPath>
    <clipPath
       clipPathUnits="userSpaceOnUse"
       id="clipPath30">
      <path
         d="M 0,95.451 H 283.465 V 0 H 0 Z"
         transform="translate(-244.8997,-13.047398)"
         id="path30" />
    </clipPath>
    <clipPath
       clipPathUnits="userSpaceOnUse"
       id="clipPath32">
      <path
         d="M 0,95.451 H 283.465 V 0 H 0 Z"
         transform="translate(-218.6863,-11.6736)"
         id="path32" />
    </clipPath>
    <clipPath
       clipPathUnits="userSpaceOnUse"
       id="clipPath34">
      <path
         d="M 0,95.451 H 283.465 V 0 H 0 Z"
         transform="translate(-268.63771,-19.886498)"
         id="path34" />
    </clipPath>
    <clipPath
       clipPathUnits="userSpaceOnUse"
       id="clipPath37">
      <path
         d="M 0,95.451 H 283.465 V 0 H 0 Z"
         transform="translate(-13.307901,-84.103702)"
         id="path37" />
    </clipPath>
    <clipPath
       clipPathUnits="userSpaceOnUse"
       id="clipPath39">
      <path
         d="M 0,95.451 H 283.465 V 0 H 0 Z"
         transform="translate(-132.5032,-83.882702)"
         id="path39" />
    </clipPath>
    <clipPath
       clipPathUnits="userSpaceOnUse"
       id="clipPath41">
      <path
         d="M 0,95.451 H 283.465 V 0 H 0 Z"
         transform="translate(-71.125802,-72.604202)"
         id="path41" />
    </clipPath>
    <clipPath
       clipPathUnits="userSpaceOnUse"
       id="clipPath43">
      <path
         d="M 0,95.451 H 283.465 V 0 H 0 Z"
         transform="translate(-106.803,-71.723002)"
         id="path43" />
    </clipPath>
    <clipPath
       clipPathUnits="userSpaceOnUse"
       id="clipPath45">
      <path
         d="M 0,95.451 H 283.465 V 0 H 0 Z"
         transform="translate(-161.7012,-71.722002)"
         id="path45" />
    </clipPath>
    <clipPath
       clipPathUnits="userSpaceOnUse"
       id="clipPath47">
      <path
         d="M 0,95.451 H 283.465 V 0 H 0 Z"
         transform="translate(-134.0112,-72.775502)"
         id="path47" />
    </clipPath>
    <clipPath
       clipPathUnits="userSpaceOnUse"
       id="clipPath49">
      <path
         d="M 0,95.451 H 283.465 V 0 H 0 Z"
         transform="translate(-38.857801,-59.690501)"
         id="path49" />
    </clipPath>
    <clipPath
       clipPathUnits="userSpaceOnUse"
       id="clipPath51">
      <path
         d="M 0,95.451 H 283.465 V 0 H 0 Z"
         transform="translate(-204.96421,-46.640001)"
         id="path51" />
    </clipPath>
    <clipPath
       clipPathUnits="userSpaceOnUse"
       id="clipPath53">
      <path
         d="M 0,95.451 H 283.465 V 0 H 0 Z"
         id="path53" />
    </clipPath>
    <clipPath
       clipPathUnits="userSpaceOnUse"
       id="clipPath55">
      <path
         d="M 0,95.451 H 283.465 V 0 H 0 Z"
         transform="translate(-161.9871,-0.24950251)"
         id="path55" />
    </clipPath>
    <clipPath
       clipPathUnits="userSpaceOnUse"
       id="clipPath57">
      <path
         d="M 0,95.451 H 283.465 V 0 H 0 Z"
         transform="translate(-249.72481,-5.0543026)"
         id="path57" />
    </clipPath>
    <clipPath
       clipPathUnits="userSpaceOnUse"
       id="clipPath59">
      <path
         d="M 0,95.451 H 283.465 V 0 H 0 Z"
         transform="translate(-161.2759,0.0014025)"
         id="path59" />
    </clipPath>
    <clipPath
       clipPathUnits="userSpaceOnUse"
       id="clipPath61">
      <path
         d="M 0,95.451 H 283.465 V 0 H 0 Z"
         transform="translate(-185.36991,-9.9276002)"
         id="path61" />
    </clipPath>
    <clipPath
       clipPathUnits="userSpaceOnUse"
       id="clipPath63">
      <path
         d="M 0,95.451 H 283.465 V 0 H 0 Z"
         transform="translate(-244.8997,-13.047398)"
         id="path63" />
    </clipPath>
    <clipPath
       clipPathUnits="userSpaceOnUse"
       id="clipPath65">
      <path
         d="M 0,95.451 H 283.465 V 0 H 0 Z"
         transform="translate(-218.6863,-11.6736)"
         id="path65" />
    </clipPath>
    <clipPath
       clipPathUnits="userSpaceOnUse"
       id="clipPath67">
      <path
         d="M 0,95.451 H 283.465 V 0 H 0 Z"
         transform="translate(-268.63771,-19.886498)"
         id="path67" />
    </clipPath>
    <clipPath
       clipPathUnits="userSpaceOnUse"
       id="clipPath69">
      <path
         d="M 0,95.451 H 283.465 V 0 H 0 Z"
         transform="translate(-13.307901,-84.103702)"
         id="path69" />
    </clipPath>
    <clipPath
       clipPathUnits="userSpaceOnUse"
       id="clipPath71">
      <path
         d="M 0,95.451 H 283.465 V 0 H 0 Z"
         transform="translate(-132.5032,-83.882702)"
         id="path71" />
    </clipPath>
    <clipPath
       clipPathUnits="userSpaceOnUse"
       id="clipPath73">
      <path
         d="M 0,95.451 H 283.465 V 0 H 0 Z"
         transform="translate(-71.125802,-72.604202)"
         id="path73" />
    </clipPath>
    <clipPath
       clipPathUnits="userSpaceOnUse"
       id="clipPath75">
      <path
         d="M 0,95.451 H 283.465 V 0 H 0 Z"
         transform="translate(-106.803,-71.723002)"
         id="path75" />
    </clipPath>
    <clipPath
       clipPathUnits="userSpaceOnUse"
       id="clipPath77">
      <path
         d="M 0,95.451 H 283.465 V 0 H 0 Z"
         transform="translate(-134.0112,-72.775502)"
         id="path77" />
    </clipPath>
    <clipPath
       clipPathUnits="userSpaceOnUse"
       id="clipPath79">
      <path
         d="M 0,95.451 H 283.465 V 0 H 0 Z"
         transform="translate(-38.857801,-59.690501)"
         id="path79" />
    </clipPath>
    <clipPath
       clipPathUnits="userSpaceOnUse"
       id="clipPath81">
      <path
         d="M 0,95.451 H 283.465 V 0 H 0 Z"
         transform="translate(-197.2578,-50.771701)"
         id="path81" />
    </clipPath>
    <clipPath
       clipPathUnits="userSpaceOnUse"
       id="clipPath83">
      <path
         d="M 0,95.451 H 283.465 V 0 H 0 Z"
         transform="translate(-159.829,-41.428001)"
         id="path83" />
    </clipPath>
    <clipPath
       clipPathUnits="userSpaceOnUse"
       id="clipPath85">
      <path
         d="M 0,95.451 H 283.465 V 0 H 0 Z"
         transform="translate(-161.2759,0.0014025)"
         id="path85" />
    </clipPath>
    <clipPath
       clipPathUnits="userSpaceOnUse"
       id="clipPath87">
      <path
         d="M 0,95.451 H 283.465 V 0 H 0 Z"
         transform="translate(-185.36991,-9.9276002)"
         id="path87" />
    </clipPath>
    <clipPath
       clipPathUnits="userSpaceOnUse"
       id="clipPath89">
      <path
         d="M 0,95.451 H 283.465 V 0 H 0 Z"
         transform="translate(-244.8997,-13.047398)"
         id="path89" />
    </clipPath>
    <clipPath
       clipPathUnits="userSpaceOnUse"
       id="clipPath91">
      <path
         d="M 0,95.451 H 283.465 V 0 H 0 Z"
         transform="translate(-218.6863,-11.6736)"
         id="path91" />
    </clipPath>
    <clipPath
       clipPathUnits="userSpaceOnUse"
       id="clipPath93">
      <path
         d="M 0,95.451 H 283.465 V 0 H 0 Z"
         transform="translate(-254.74311,-13.5633)"
         id="path93" />
    </clipPath>
    <clipPath
       clipPathUnits="userSpaceOnUse"
       id="clipPath95">
      <path
         d="M 0,95.451 H 283.465 V 0 H 0 Z"
         transform="translate(0,-95.451002)"
         id="path95" />
    </clipPath>
    <clipPath
       clipPathUnits="userSpaceOnUse"
       id="clipPath98">
      <path
         d="M 0,95.451 H 283.465 V 0 H 0 Z"
         transform="translate(-13.307901,-84.103702)"
         id="path98" />
    </clipPath>
    <clipPath
       clipPathUnits="userSpaceOnUse"
       id="clipPath100">
      <path
         d="M 0,95.451 H 283.465 V 0 H 0 Z"
         transform="translate(-132.5032,-83.882702)"
         id="path100" />
    </clipPath>
    <clipPath
       clipPathUnits="userSpaceOnUse"
       id="clipPath102">
      <path
         d="M 0,95.451 H 283.465 V 0 H 0 Z"
         transform="translate(-71.125802,-72.604202)"
         id="path102" />
    </clipPath>
    <clipPath
       clipPathUnits="userSpaceOnUse"
       id="clipPath104">
      <path
         d="M 0,95.451 H 283.465 V 0 H 0 Z"
         transform="translate(-106.803,-71.723002)"
         id="path104" />
    </clipPath>
    <clipPath
       clipPathUnits="userSpaceOnUse"
       id="clipPath106">
      <path
         d="M 0,95.451 H 283.465 V 0 H 0 Z"
         transform="translate(-161.7012,-71.722002)"
         id="path106" />
    </clipPath>
    <clipPath
       clipPathUnits="userSpaceOnUse"
       id="clipPath108">
      <path
         d="M 0,95.451 H 283.465 V 0 H 0 Z"
         transform="translate(-134.0112,-72.775502)"
         id="path108" />
    </clipPath>
    <clipPath
       clipPathUnits="userSpaceOnUse"
       id="clipPath110">
      <path
         d="M 0,95.451 H 283.465 V 0 H 0 Z"
         transform="translate(-38.857801,-59.690501)"
         id="path110" />
    </clipPath>
    <clipPath
       clipPathUnits="userSpaceOnUse"
       id="clipPath112">
      <path
         d="M 0,95.451 H 283.465 V 0 H 0 Z"
         transform="translate(-204.96421,-46.640001)"
         id="path112" />
    </clipPath>
    <clipPath
       clipPathUnits="userSpaceOnUse"
       id="clipPath114">
      <path
         d="M 0,95.451 H 283.465 V 0 H 0 Z"
         id="path114" />
    </clipPath>
    <clipPath
       clipPathUnits="userSpaceOnUse"
       id="clipPath116">
      <path
         d="M 0,95.451 H 283.465 V 0 H 0 Z"
         transform="translate(-161.9871,-0.24950251)"
         id="path116" />
    </clipPath>
    <clipPath
       clipPathUnits="userSpaceOnUse"
       id="clipPath118">
      <path
         d="M 0,95.451 H 283.465 V 0 H 0 Z"
         transform="translate(-249.72481,-5.0543026)"
         id="path118" />
    </clipPath>
    <clipPath
       clipPathUnits="userSpaceOnUse"
       id="clipPath120">
      <path
         d="M 0,95.451 H 283.465 V 0 H 0 Z"
         transform="translate(-161.2759,0.0014025)"
         id="path120" />
    </clipPath>
    <clipPath
       clipPathUnits="userSpaceOnUse"
       id="clipPath122">
      <path
         d="M 0,95.451 H 283.465 V 0 H 0 Z"
         transform="translate(-185.36991,-9.9276002)"
         id="path122" />
    </clipPath>
    <clipPath
       clipPathUnits="userSpaceOnUse"
       id="clipPath124">
      <path
         d="M 0,95.451 H 283.465 V 0 H 0 Z"
         transform="translate(-244.8997,-13.047398)"
         id="path124" />
    </clipPath>
    <clipPath
       clipPathUnits="userSpaceOnUse"
       id="clipPath126">
      <path
         d="M 0,95.451 H 283.465 V 0 H 0 Z"
         transform="translate(-218.6863,-11.6736)"
         id="path126" />
    </clipPath>
    <clipPath
       clipPathUnits="userSpaceOnUse"
       id="clipPath128">
      <path
         d="M 0,95.451 H 283.465 V 0 H 0 Z"
         transform="translate(-268.63771,-19.886498)"
         id="path128" />
    </clipPath>
    <clipPath
       clipPathUnits="userSpaceOnUse"
       id="clipPath131">
      <path
         d="M 0,95.451 H 283.465 V 0 H 0 Z"
         transform="translate(-13.307901,-84.103702)"
         id="path131" />
    </clipPath>
    <clipPath
       clipPathUnits="userSpaceOnUse"
       id="clipPath133">
      <path
         d="M 0,95.451 H 283.465 V 0 H 0 Z"
         transform="translate(-132.5032,-83.882702)"
         id="path133" />
    </clipPath>
    <clipPath
       clipPathUnits="userSpaceOnUse"
       id="clipPath135">
      <path
         d="M 0,95.451 H 283.465 V 0 H 0 Z"
         transform="translate(-71.125802,-72.604202)"
         id="path135" />
    </clipPath>
    <clipPath
       clipPathUnits="userSpaceOnUse"
       id="clipPath137">
      <path
         d="M 0,95.451 H 283.465 V 0 H 0 Z"
         transform="translate(-106.803,-71.723002)"
         id="path137" />
    </clipPath>
    <clipPath
       clipPathUnits="userSpaceOnUse"
       id="clipPath139">
      <path
         d="M 0,95.451 H 283.465 V 0 H 0 Z"
         transform="translate(-161.7012,-71.722002)"
         id="path139" />
    </clipPath>
    <clipPath
       clipPathUnits="userSpaceOnUse"
       id="clipPath141">
      <path
         d="M 0,95.451 H 283.465 V 0 H 0 Z"
         transform="translate(-134.0112,-72.775502)"
         id="path141" />
    </clipPath>
    <clipPath
       clipPathUnits="userSpaceOnUse"
       id="clipPath143">
      <path
         d="M 0,95.451 H 283.465 V 0 H 0 Z"
         transform="translate(-38.857801,-59.690501)"
         id="path143" />
    </clipPath>
    <clipPath
       clipPathUnits="userSpaceOnUse"
       id="clipPath145">
      <path
         d="M 0,95.451 H 283.465 V 0 H 0 Z"
         transform="translate(-204.96421,-46.640001)"
         id="path145" />
    </clipPath>
    <clipPath
       clipPathUnits="userSpaceOnUse"
       id="clipPath147">
      <path
         d="M 0,95.451 H 283.465 V 0 H 0 Z"
         id="path147" />
    </clipPath>
    <clipPath
       clipPathUnits="userSpaceOnUse"
       id="clipPath149">
      <path
         d="M 0,95.451 H 283.465 V 0 H 0 Z"
         transform="translate(-161.9871,-0.24950251)"
         id="path149" />
    </clipPath>
    <clipPath
       clipPathUnits="userSpaceOnUse"
       id="clipPath151">
      <path
         d="M 0,95.451 H 283.465 V 0 H 0 Z"
         transform="translate(-249.72481,-5.0543026)"
         id="path151" />
    </clipPath>
    <clipPath
       clipPathUnits="userSpaceOnUse"
       id="clipPath153">
      <path
         d="M 0,95.451 H 283.465 V 0 H 0 Z"
         transform="translate(-161.2759,0.0014025)"
         id="path153" />
    </clipPath>
    <clipPath
       clipPathUnits="userSpaceOnUse"
       id="clipPath155">
      <path
         d="M 0,95.451 H 283.465 V 0 H 0 Z"
         transform="translate(-185.36991,-9.9276002)"
         id="path155" />
    </clipPath>
    <clipPath
       clipPathUnits="userSpaceOnUse"
       id="clipPath157">
      <path
         d="M 0,95.451 H 283.465 V 0 H 0 Z"
         transform="translate(-244.8997,-13.047398)"
         id="path157" />
    </clipPath>
    <clipPath
       clipPathUnits="userSpaceOnUse"
       id="clipPath159">
      <path
         d="M 0,95.451 H 283.465 V 0 H 0 Z"
         transform="translate(-218.6863,-11.6736)"
         id="path159" />
    </clipPath>
    <clipPath
       clipPathUnits="userSpaceOnUse"
       id="clipPath161">
      <path
         d="M 0,95.451 H 283.465 V 0 H 0 Z"
         transform="translate(-268.63771,-19.886498)"
         id="path161" />
    </clipPath>
    <clipPath
       clipPathUnits="userSpaceOnUse"
       id="clipPath164">
      <path
         d="M 0,95.451 H 283.465 V 0 H 0 Z"
         transform="translate(-13.307901,-84.103702)"
         id="path164" />
    </clipPath>
    <clipPath
       clipPathUnits="userSpaceOnUse"
       id="clipPath166">
      <path
         d="M 0,95.451 H 283.465 V 0 H 0 Z"
         transform="translate(-132.5032,-83.882702)"
         id="path166" />
    </clipPath>
    <clipPath
       clipPathUnits="userSpaceOnUse"
       id="clipPath168">
      <path
         d="M 0,95.451 H 283.465 V 0 H 0 Z"
         transform="translate(-71.125802,-72.604202)"
         id="path168" />
    </clipPath>
    <clipPath
       clipPathUnits="userSpaceOnUse"
       id="clipPath170">
      <path
         d="M 0,95.451 H 283.465 V 0 H 0 Z"
         transform="translate(-106.803,-71.723002)"
         id="path170" />
    </clipPath>
    <clipPath
       clipPathUnits="userSpaceOnUse"
       id="clipPath172">
      <path
         d="M 0,95.451 H 283.465 V 0 H 0 Z"
         transform="translate(-161.7012,-71.722002)"
         id="path172" />
    </clipPath>
    <clipPath
       clipPathUnits="userSpaceOnUse"
       id="clipPath174">
      <path
         d="M 0,95.451 H 283.465 V 0 H 0 Z"
         transform="translate(-134.0112,-72.775502)"
         id="path174" />
    </clipPath>
    <clipPath
       clipPathUnits="userSpaceOnUse"
       id="clipPath176">
      <path
         d="M 0,95.451 H 283.465 V 0 H 0 Z"
         transform="translate(-38.857801,-59.690501)"
         id="path176" />
    </clipPath>
    <clipPath
       clipPathUnits="userSpaceOnUse"
       id="clipPath178">
      <path
         d="M 0,95.451 H 283.465 V 0 H 0 Z"
         transform="translate(-204.96421,-46.640001)"
         id="path178" />
    </clipPath>
    <clipPath
       clipPathUnits="userSpaceOnUse"
       id="clipPath180">
      <path
         d="M 0,95.451 H 283.465 V 0 H 0 Z"
         id="path180" />
    </clipPath>
    <clipPath
       clipPathUnits="userSpaceOnUse"
       id="clipPath182">
      <path
         d="M 0,95.451 H 283.465 V 0 H 0 Z"
         transform="translate(-161.9871,-0.24950251)"
         id="path182" />
    </clipPath>
    <clipPath
       clipPathUnits="userSpaceOnUse"
       id="clipPath184">
      <path
         d="M 0,95.451 H 283.465 V 0 H 0 Z"
         transform="translate(-249.72481,-5.0543026)"
         id="path184" />
    </clipPath>
    <clipPath
       clipPathUnits="userSpaceOnUse"
       id="clipPath186">
      <path
         d="M 0,95.451 H 283.465 V 0 H 0 Z"
         transform="translate(-161.2759,0.0014025)"
         id="path186" />
    </clipPath>
    <clipPath
       clipPathUnits="userSpaceOnUse"
       id="clipPath188">
      <path
         d="M 0,95.451 H 283.465 V 0 H 0 Z"
         transform="translate(-185.36991,-9.9276002)"
         id="path188" />
    </clipPath>
    <clipPath
       clipPathUnits="userSpaceOnUse"
       id="clipPath190">
      <path
         d="M 0,95.451 H 283.465 V 0 H 0 Z"
         transform="translate(-244.8997,-13.047398)"
         id="path190" />
    </clipPath>
    <clipPath
       clipPathUnits="userSpaceOnUse"
       id="clipPath192">
      <path
         d="M 0,95.451 H 283.465 V 0 H 0 Z"
         transform="translate(-218.6863,-11.6736)"
         id="path192" />
    </clipPath>
    <clipPath
       clipPathUnits="userSpaceOnUse"
       id="clipPath194">
      <path
         d="M 0,95.451 H 283.465 V 0 H 0 Z"
         transform="translate(-268.63771,-19.886498)"
         id="path194" />
    </clipPath>
  </defs>
  <sodipodi:namedview
     id="namedview1"
     pagecolor="#ffffff"
     bordercolor="#000000"
     borderopacity="0.25"
     inkscape:showpageshadow="2"
     inkscape:pageopacity="0.0"
     inkscape:pagecheckerboard="0"
     inkscape:deskcolor="#d1d1d1">
    <inkscape:page
       x="0"
       y="0"
       inkscape:label="1"
       id="page1"
       width="377.95334"
       height="127.268"
       margin="0"
       bleed="0" />
  </sodipodi:namedview>
  <g
     id="layer-MC0"
     inkscape:groupmode="layer"
     inkscape:label="HG"
     style="display:none">
    <path
       id="path1"
       d="M 0.002,0 H 283.463 V 95.389 H 0.002 Z"
       style="fill:#8ad6b6;fill-opacity:1;fill-rule:nonzero;stroke:none"
       transform="matrix(1.3333333,0,0,-1.3333333,0,127.268)" />
  </g>
  <g
     id="layer-MC1"
     inkscape:groupmode="layer"
     inkscape:label="hks"
     style="display:none">
    <path
       id="path2"
       d="M 1.242,29.011 H 282.596 V 94.322 H 1.242 Z"
       style="fill:#fff200;fill-opacity:1;fill-rule:nonzero;stroke:none"
       transform="matrix(1.3333333,0,0,-1.3333333,0,127.268)" />
    <path
       id="path3"
       d="m 0,0 c 3.112,0.049 6.229,0.003 9.341,0.022 0.639,0.077 1.187,-0.557 1.15,-1.171 0,-14.126 -0.004,-28.252 0,-42.379 -0.013,-0.44 0.089,-0.957 -0.256,-1.303 -0.236,-0.33 -0.647,-0.444 -1.036,-0.425 -2.948,0.004 -5.896,-0.008 -8.842,0.005 -0.59,-0.045 -1.207,0.421 -1.161,1.047 -0.005,14.395 -0.003,28.787 -0.003,43.182 C -0.836,-0.541 -0.461,-0.098 0,0"
       style="fill:#231f20;fill-opacity:1;fill-rule:nonzero;stroke:none"
       transform="matrix(1.3333333,0,0,-1.3333333,17.743867,15.129733)"
       clip-path="url(#clipPath4)" />
    <path
       id="path5"
       d="m 0,0 c 0.217,0.207 0.519,0.253 0.813,0.243 3.763,-0.006 7.519,0 11.284,-0.004 0.633,0.06 1.12,-0.562 1.125,-1.154 0.01,-1.456 0,-2.911 0.004,-4.367 0.044,-0.639 -0.482,-1.305 -1.146,-1.283 -3.755,-0.005 -7.508,0 -11.267,-0.003 -0.691,-0.057 -1.247,0.601 -1.232,1.264 -0.048,1.421 0.017,2.84 -0.011,4.259 C -0.35,-0.679 -0.329,-0.244 0,0"
       style="fill:#231f20;fill-opacity:1;fill-rule:nonzero;stroke:none"
       transform="matrix(1.3333333,0,0,-1.3333333,176.67093,15.4244)"
       clip-path="url(#clipPath6)" />
    <path
       id="path7"
       d="m 0,0 c 2.896,0.858 5.962,0.962 8.963,0.783 2.475,-0.155 4.937,-0.541 7.345,-1.133 0.924,-0.237 1.826,-0.525 2.729,-0.837 0.432,-0.136 0.872,-0.487 0.878,-0.974 0.061,-0.611 -0.256,-1.16 -0.406,-1.733 -0.462,-1.513 -0.986,-3.008 -1.41,-4.53 -0.144,-0.378 -0.433,-0.726 -0.84,-0.824 -0.423,-0.105 -0.835,0.082 -1.225,0.214 -0.074,0.019 -0.224,0.058 -0.294,0.077 -2.606,0.742 -5.285,1.357 -8.009,1.307 -1.026,0.006 -2.109,0.041 -3.057,-0.41 -1.217,-0.533 -1.337,-2.476 -0.258,-3.21 0.783,-0.486 1.741,-0.543 2.639,-0.573 2.486,0.052 4.992,-0.387 7.28,-1.384 2.862,-1.247 5.275,-3.676 6.142,-6.72 0.698,-2.467 0.704,-5.188 -0.272,-7.577 -0.6,-1.445 -1.62,-2.696 -2.834,-3.668 -1.459,-1.185 -3.22,-1.939 -5.023,-2.44 -1.983,-0.536 -4.049,-0.797 -6.105,-0.758 -4.518,-0.042 -9.111,0.369 -13.379,1.917 -0.612,0.218 -0.848,0.969 -0.617,1.541 0.552,1.812 1.122,3.617 1.657,5.437 0.09,0.407 0.308,0.824 0.718,0.991 0.38,0.253 0.821,0.044 1.215,-0.055 2.481,-0.624 5.014,-1.048 7.56,-1.271 1.128,-0.063 2.259,-0.046 3.389,-0.046 0.935,0.032 2.005,0.23 2.592,1.037 0.359,0.468 0.356,1.087 0.297,1.645 -0.163,0.359 -0.299,0.759 -0.645,0.981 -0.844,0.595 -1.929,0.614 -2.924,0.601 -1.269,0.072 -2.546,0.097 -3.79,0.38 -2.7,0.538 -5.327,1.786 -7.189,3.851 -1.813,1.98 -2.758,4.69 -2.701,7.362 -0.038,2.097 0.451,4.241 1.631,5.997 1.318,1.962 3.437,3.226 5.647,3.954 C -0.223,-0.054 -0.074,-0.016 0,0"
       style="fill:#231f20;fill-opacity:1;fill-rule:nonzero;stroke:none"
       transform="matrix(1.3333333,0,0,-1.3333333,94.8344,30.4624)"
       clip-path="url(#clipPath8)" />
    <path
       id="path9"
       d="m 0,0 c 2.889,1.166 6.014,1.982 9.149,1.672 1.099,-0.087 2.183,-0.329 3.236,-0.652 2.535,-0.8 4.78,-2.501 6.197,-4.757 1.295,-2.021 1.928,-4.396 2.161,-6.765 0.169,-2.624 0.058,-5.249 0.1,-7.873 -0.059,-2.264 0.058,-4.531 -0.042,-6.796 0.095,-1.761 -0.017,-3.521 0.042,-5.282 -0.027,-0.564 0.063,-1.15 -0.1,-1.703 -0.166,-0.469 -0.658,-0.748 -1.142,-0.716 -2.994,0 -5.986,-0.015 -8.981,0.006 -0.619,-0.038 -1.177,0.559 -1.119,1.171 0.005,6.206 0,12.407 0,18.607 0.005,1.169 0,2.37 -0.423,3.476 C 8.716,-8.587 7.866,-7.745 6.816,-7.451 5.101,-6.943 3.237,-7.362 1.683,-8.16 1.04,-8.468 0.484,-8.919 -0.028,-9.402 c -0.04,-7.477 0,-14.956 -0.021,-22.432 -0.007,-0.431 -0.344,-0.779 -0.698,-0.973 -0.368,-0.095 -0.75,-0.065 -1.122,-0.071 -2.807,0.004 -5.62,0.041 -8.422,0.031 -0.557,-0.04 -1.091,0.465 -1.041,1.028 -0.006,10.636 -0.006,21.275 0,31.912 -0.033,0.478 0.389,0.818 0.78,1 C -7.43,1.1 -4.305,1.096 -1.184,1.096 -0.562,1.144 -0.074,0.58 0,0"
       style="fill:#231f20;fill-opacity:1;fill-rule:nonzero;stroke:none"
       transform="matrix(1.3333333,0,0,-1.3333333,142.404,31.637333)"
       clip-path="url(#clipPath10)" />
    <path
       id="path11"
       d="m 0,0 c 2.846,1.1 5.887,1.97 8.966,1.685 2.522,-0.171 5.035,-0.982 7.044,-2.541 2.195,-1.656 3.619,-4.18 4.298,-6.813 0.308,-1.191 0.452,-2.415 0.542,-3.639 0.015,-6.791 0,-13.579 0.009,-20.374 0.081,-0.636 -0.52,-1.229 -1.152,-1.187 -2.989,-0.013 -5.969,-0.006 -8.96,-0.004 -0.599,-0.046 -1.203,0.433 -1.18,1.053 -0.012,5.797 -0.006,11.596 -0.006,17.387 -0.021,1.446 0.095,2.913 -0.272,4.324 C 9.056,-9.213 8.541,-8.365 7.756,-7.851 6.778,-7.272 5.59,-7.123 4.484,-7.286 2.974,-7.47 1.525,-8.106 0.35,-9.077 0.128,-9.254 -0.057,-9.512 -0.027,-9.808 v -21.195 c -0.006,-0.381 0.033,-0.765 -0.046,-1.144 -0.149,-0.477 -0.656,-0.747 -1.136,-0.722 -2.99,-0.025 -5.981,0.042 -8.976,0.019 -0.627,-0.074 -1.179,0.546 -1.146,1.148 -0.006,10.559 -0.006,21.114 -0.006,31.667 -0.017,0.598 0.536,1.184 1.146,1.132 C -7.15,1.096 -4.109,1.106 -1.068,1.092 -0.49,1.092 -0.01,0.571 0,0"
       style="fill:#231f20;fill-opacity:1;fill-rule:nonzero;stroke:none"
       transform="matrix(1.3333333,0,0,-1.3333333,215.6016,31.638667)"
       clip-path="url(#clipPath12)" />
    <path
       id="path13"
       d="m 0,0 c 1.074,0.103 2.166,0.016 3.242,0.046 2.038,0 4.076,-0.002 6.115,0 0.616,0.065 1.236,-0.498 1.184,-1.127 v -31.797 c 0.023,-0.616 -0.583,-1.088 -1.175,-1.046 -2.986,-0.014 -5.981,0.046 -8.97,0.013 -0.635,-0.074 -1.219,0.553 -1.165,1.171 0.005,10.554 0,21.101 0.005,31.65 C -0.786,-0.611 -0.446,-0.157 0,0"
       style="fill:#231f20;fill-opacity:1;fill-rule:nonzero;stroke:none"
       transform="matrix(1.3333333,0,0,-1.3333333,178.6816,30.234)"
       clip-path="url(#clipPath14)" />
    <path
       id="path15"
       d="m 0,0 c -0.021,0.025 -0.073,0.077 -0.098,0.101 -0.038,1.513 0.275,3.182 1.386,4.294 0.697,0.756 1.72,1.1 2.71,1.266 1.552,0.122 3.296,0.1 4.551,-0.96 1.33,-1.143 1.674,-3.032 1.628,-4.704 C 6.783,-0.003 3.391,-0.013 0,0 m 21.472,-5.118 c -0.055,2.301 0.141,4.621 -0.174,6.907 -0.395,2.818 -1.6,5.574 -3.648,7.585 -1.654,1.669 -3.774,2.846 -6.024,3.501 -2.644,0.801 -5.447,0.97 -8.191,0.782 C 0.894,13.426 -1.651,12.852 -3.924,11.663 -6.215,10.5 -8.226,8.728 -9.536,6.502 c -1.282,-2.103 -1.88,-4.585 -1.889,-7.036 -0.032,-1.434 -0.008,-2.875 -0.015,-4.31 0.013,-1.769 -0.077,-3.568 0.331,-5.305 0.541,-2.59 1.935,-4.976 3.864,-6.781 1.671,-1.54 3.683,-2.704 5.838,-3.427 2.565,-0.888 5.299,-1.229 8.006,-1.162 4.47,0.041 8.967,0.714 13.164,2.291 0.554,0.17 0.863,0.804 0.714,1.355 -0.274,0.955 -0.573,1.896 -0.813,2.863 l -0.054,0.092 c -0.302,1.048 -0.595,2.101 -0.938,3.133 -0.233,0.731 -1.146,0.764 -1.753,0.538 -0.176,-0.049 -0.352,-0.1 -0.529,-0.144 -3.294,-0.758 -6.674,-1.269 -10.063,-1.135 -1.381,0.09 -2.789,0.31 -4.036,0.939 -0.978,0.479 -1.74,1.338 -2.12,2.354 -0.163,0.606 -0.301,1.231 -0.276,1.861 6.579,0.017 13.157,0.006 19.734,0.006 0.509,0.017 1.128,-0.095 1.503,0.34 0.511,0.499 0.294,1.274 0.34,1.908"
       style="fill:#231f20;fill-opacity:1;fill-rule:nonzero;stroke:none"
       transform="matrix(1.3333333,0,0,-1.3333333,51.8104,47.680667)"
       clip-path="url(#clipPath16)" />
    <path
       id="path17"
       d="m 0,0 c -0.163,-0.021 -0.329,-0.042 -0.486,-0.067 -1.615,-0.276 -3.261,-0.499 -4.895,-0.341 -0.961,0.127 -1.891,0.724 -2.188,1.681 -0.239,0.932 -0.128,1.908 -0.137,2.859 0.137,0.818 0.516,1.674 1.284,2.07 0.851,0.523 1.869,0.452 2.819,0.504 C -2.924,6.662 -2.239,6.66 -1.56,6.711 -1.041,6.662 -0.515,6.678 0.01,6.675 0.006,4.449 0.021,2.224 0,0 m 9.094,20.748 c -1.361,2.033 -3.36,3.591 -5.592,4.563 -2.53,1.094 -5.312,1.506 -8.055,1.513 -3.645,-0.019 -7.299,-0.516 -10.806,-1.532 -0.398,-0.114 -0.852,-0.222 -1.087,-0.593 -0.261,-0.332 -0.257,-0.782 -0.117,-1.162 0.519,-1.654 1.037,-3.305 1.554,-4.961 0.155,-0.483 0.266,-1.075 0.769,-1.326 0.517,-0.304 1.093,-0.006 1.619,0.123 2.006,0.541 4.088,0.837 6.166,0.856 1.349,0.005 2.729,-0.022 4.015,-0.459 0.834,-0.281 1.61,-0.83 1.983,-1.641 0.446,-0.976 0.472,-2.075 0.472,-3.129 -2.11,-0.008 -4.221,0 -6.336,-0.005 -2.411,0.033 -4.905,-0.155 -7.117,-1.187 -2.023,-0.919 -3.714,-2.563 -4.639,-4.588 -1.158,-2.503 -1.37,-5.389 -0.807,-8.07 0.434,-2.07 1.542,-4.03 3.247,-5.306 2.033,-1.56 4.639,-2.111 7.155,-2.261 2.862,-0.093 5.845,0.19 8.446,1.489 0.239,-0.382 0.536,-0.857 1.05,-0.847 3.078,0.013 6.159,0.005 9.242,0.007 0.514,-0.046 0.93,0.37 1.081,0.835 v 20.748 c -0.163,2.444 -0.852,4.897 -2.243,6.933"
       style="fill:#231f20;fill-opacity:1;fill-rule:nonzero;stroke:none"
       transform="matrix(1.3333333,0,0,-1.3333333,273.2856,65.081333)"
       clip-path="url(#clipPath18)" />
    <path
       id="path19"
       d="M 281.465,93.45 H 2 V 29.541 h 279.465 z m 2,-65.909 H 0 v 67.91 h 283.465 z"
       style="fill:#231f20;fill-opacity:1;fill-rule:nonzero;stroke:none"
       transform="matrix(1.3333333,0,0,-1.3333333,0,127.268)"
       clip-path="url(#clipPath20)" />
    <path
       id="path21"
       d="M 0,0 88.057,4.615 85.899,45.793 -2.158,41.178 Z"
       style="fill:#ffffff;fill-opacity:1;fill-rule:nonzero;stroke:none"
       transform="matrix(1.3333333,0,0,-1.3333333,215.9828,126.93533)"
       clip-path="url(#clipPath22)" />
    <path
       id="path23"
       d="M 0,0 25.675,1.346 23.534,42.204 -2.141,40.858 Z"
       style="fill:#ed1c24;fill-opacity:1;fill-rule:nonzero;stroke:none"
       transform="matrix(1.3333333,0,0,-1.3333333,332.9664,120.52893)"
       clip-path="url(#clipPath24)" />
    <path
       id="path25"
       d="M 0,0 115.073,6.031 112.893,47.635 -2.18,41.604 Z M -0.131,39.91 110.982,45.565 113.024,7.725 1.911,2.07 Z"
       style="fill:#231f20;fill-opacity:1;fill-rule:nonzero;stroke:none"
       transform="matrix(1.3333333,0,0,-1.3333333,215.03453,127.26987)"
       clip-path="url(#clipPath26)" />
    <path
       id="path27"
       d="m 0,0 -5.13,7.497 -4.317,-7.992 -6.952,-0.364 7.254,12.84 -8.266,11.659 6.901,0.362 4.89,-7.143 4.116,7.615 6.902,0.361 L -1.605,12.377 6.952,0.364 Z"
       style="fill:#231f20;fill-opacity:1;fill-rule:nonzero;stroke:none"
       transform="matrix(1.3333333,0,0,-1.3333333,247.15987,114.0312)"
       clip-path="url(#clipPath28)" />
    <path
       id="path29"
       d="m 0,0 -8.557,12.012 7.003,12.459 -6.902,-0.362 -4.116,-7.615 -4.89,7.143 -6.902,-0.361 8.267,-11.659 -7.255,-12.841 6.953,0.365 4.317,7.991 5.13,-7.496 z"
       style="fill:#231f20;fill-opacity:1;fill-rule:nonzero;stroke:none"
       transform="matrix(1.3333333,0,0,-1.3333333,326.53293,109.87147)"
       clip-path="url(#clipPath30)" />
    <path
       id="path31"
       d="m 0,0 -8.557,12.012 7.003,12.459 -6.902,-0.362 -4.116,-7.615 -4.89,7.143 -6.902,-0.361 8.267,-11.659 -7.255,-12.841 6.953,0.365 4.317,7.991 5.13,-7.496 z"
       style="fill:#231f20;fill-opacity:1;fill-rule:nonzero;stroke:none"
       transform="matrix(1.3333333,0,0,-1.3333333,291.58173,111.7032)"
       clip-path="url(#clipPath32)" />
    <path
       id="path33"
       d="m 0,0 -8.176,-0.428 -0.988,18.862 -6.012,-0.315 1.281,-24.442 14.187,0.743 z"
       style="fill:#ffffff;fill-opacity:1;fill-rule:nonzero;stroke:none"
       transform="matrix(1.3333333,0,0,-1.3333333,358.1836,100.75267)"
       clip-path="url(#clipPath34)" />
  </g>
  <g
     id="layer-MC2"
     inkscape:groupmode="layer"
     inkscape:label="Pantone"
     style="display:none">
    <path
       id="path35"
       d="M 1.242,29.011 H 282.596 V 94.322 H 1.242 Z"
       style="fill:#fff200;fill-opacity:1;fill-rule:nonzero;stroke:none"
       transform="matrix(1.3333333,0,0,-1.3333333,0,127.268)" />
    <path
       id="path36"
       d="m 0,0 c 3.112,0.049 6.229,0.003 9.341,0.022 0.639,0.077 1.187,-0.557 1.15,-1.171 0,-14.126 -0.004,-28.252 0,-42.379 -0.013,-0.44 0.089,-0.957 -0.256,-1.303 -0.236,-0.33 -0.647,-0.444 -1.036,-0.425 -2.948,0.004 -5.896,-0.008 -8.842,0.005 -0.59,-0.045 -1.207,0.421 -1.161,1.047 -0.005,14.395 -0.003,28.787 -0.003,43.182 C -0.836,-0.541 -0.461,-0.098 0,0"
       style="fill:#241d10;fill-opacity:1;fill-rule:nonzero;stroke:none"
       transform="matrix(1.3333333,0,0,-1.3333333,17.743867,15.129733)"
       clip-path="url(#clipPath37)" />
    <path
       id="path38"
       d="m 0,0 c 0.217,0.207 0.519,0.253 0.813,0.243 3.763,-0.006 7.519,0 11.284,-0.004 0.633,0.06 1.12,-0.562 1.125,-1.154 0.01,-1.456 0,-2.911 0.004,-4.367 0.044,-0.639 -0.482,-1.305 -1.146,-1.283 -3.755,-0.005 -7.508,0 -11.267,-0.003 -0.691,-0.057 -1.247,0.601 -1.232,1.264 -0.048,1.421 0.017,2.84 -0.011,4.259 C -0.35,-0.679 -0.329,-0.244 0,0"
       style="fill:#241d10;fill-opacity:1;fill-rule:nonzero;stroke:none"
       transform="matrix(1.3333333,0,0,-1.3333333,176.67093,15.4244)"
       clip-path="url(#clipPath39)" />
    <path
       id="path40"
       d="m 0,0 c 2.896,0.858 5.962,0.962 8.963,0.783 2.475,-0.155 4.937,-0.541 7.345,-1.133 0.924,-0.237 1.826,-0.525 2.729,-0.837 0.432,-0.136 0.872,-0.487 0.878,-0.974 0.061,-0.611 -0.256,-1.16 -0.406,-1.733 -0.462,-1.513 -0.986,-3.008 -1.41,-4.53 -0.144,-0.378 -0.433,-0.726 -0.84,-0.824 -0.423,-0.105 -0.835,0.082 -1.225,0.214 -0.074,0.019 -0.224,0.058 -0.294,0.077 -2.606,0.742 -5.285,1.357 -8.009,1.307 -1.026,0.006 -2.109,0.041 -3.057,-0.41 -1.217,-0.533 -1.337,-2.476 -0.258,-3.21 0.783,-0.486 1.741,-0.543 2.639,-0.573 2.486,0.052 4.992,-0.387 7.28,-1.384 2.862,-1.247 5.275,-3.676 6.142,-6.72 0.698,-2.467 0.704,-5.188 -0.272,-7.577 -0.6,-1.445 -1.62,-2.696 -2.834,-3.668 -1.459,-1.185 -3.22,-1.939 -5.023,-2.44 -1.983,-0.536 -4.049,-0.797 -6.105,-0.758 -4.518,-0.042 -9.111,0.369 -13.379,1.917 -0.612,0.218 -0.848,0.969 -0.617,1.541 0.552,1.812 1.122,3.617 1.657,5.437 0.09,0.407 0.308,0.824 0.718,0.991 0.38,0.253 0.821,0.044 1.215,-0.055 2.481,-0.624 5.014,-1.048 7.56,-1.271 1.128,-0.063 2.259,-0.046 3.389,-0.046 0.935,0.032 2.005,0.23 2.592,1.037 0.359,0.468 0.356,1.087 0.297,1.645 -0.163,0.359 -0.299,0.759 -0.645,0.981 -0.844,0.595 -1.929,0.614 -2.924,0.601 -1.269,0.072 -2.546,0.097 -3.79,0.38 -2.7,0.538 -5.327,1.786 -7.189,3.851 -1.813,1.98 -2.758,4.69 -2.701,7.362 -0.038,2.097 0.451,4.241 1.631,5.997 1.318,1.962 3.437,3.226 5.647,3.954 C -0.223,-0.054 -0.074,-0.016 0,0"
       style="fill:#241d10;fill-opacity:1;fill-rule:nonzero;stroke:none"
       transform="matrix(1.3333333,0,0,-1.3333333,94.8344,30.4624)"
       clip-path="url(#clipPath41)" />
    <path
       id="path42"
       d="m 0,0 c 2.889,1.166 6.014,1.982 9.149,1.672 1.099,-0.087 2.183,-0.329 3.236,-0.652 2.535,-0.8 4.78,-2.501 6.197,-4.757 1.295,-2.021 1.928,-4.396 2.161,-6.765 0.169,-2.624 0.058,-5.249 0.1,-7.873 -0.059,-2.264 0.058,-4.531 -0.042,-6.796 0.095,-1.761 -0.017,-3.521 0.042,-5.282 -0.027,-0.564 0.063,-1.15 -0.1,-1.703 -0.166,-0.469 -0.658,-0.748 -1.142,-0.716 -2.994,0 -5.986,-0.015 -8.981,0.006 -0.619,-0.038 -1.177,0.559 -1.119,1.171 0.005,6.206 0,12.407 0,18.607 0.005,1.169 0,2.37 -0.423,3.476 C 8.716,-8.587 7.866,-7.745 6.816,-7.451 5.101,-6.943 3.237,-7.362 1.683,-8.16 1.04,-8.468 0.484,-8.919 -0.028,-9.402 c -0.04,-7.477 0,-14.956 -0.021,-22.432 -0.007,-0.431 -0.344,-0.779 -0.698,-0.973 -0.368,-0.095 -0.75,-0.065 -1.122,-0.071 -2.807,0.004 -5.62,0.041 -8.422,0.031 -0.557,-0.04 -1.091,0.465 -1.041,1.028 -0.006,10.636 -0.006,21.275 0,31.912 -0.033,0.478 0.389,0.818 0.78,1 C -7.43,1.1 -4.305,1.096 -1.184,1.096 -0.562,1.144 -0.074,0.58 0,0"
       style="fill:#241d10;fill-opacity:1;fill-rule:nonzero;stroke:none"
       transform="matrix(1.3333333,0,0,-1.3333333,142.404,31.637333)"
       clip-path="url(#clipPath43)" />
    <path
       id="path44"
       d="m 0,0 c 2.846,1.1 5.887,1.97 8.966,1.685 2.522,-0.171 5.035,-0.982 7.044,-2.541 2.195,-1.656 3.619,-4.18 4.298,-6.813 0.308,-1.191 0.452,-2.415 0.542,-3.639 0.015,-6.791 0,-13.579 0.009,-20.374 0.081,-0.636 -0.52,-1.229 -1.152,-1.187 -2.989,-0.013 -5.969,-0.006 -8.96,-0.004 -0.599,-0.046 -1.203,0.433 -1.18,1.053 -0.012,5.797 -0.006,11.596 -0.006,17.387 -0.021,1.446 0.095,2.913 -0.272,4.324 C 9.056,-9.213 8.541,-8.365 7.756,-7.851 6.778,-7.272 5.59,-7.123 4.484,-7.286 2.974,-7.47 1.525,-8.106 0.35,-9.077 0.128,-9.254 -0.057,-9.512 -0.027,-9.808 v -21.195 c -0.006,-0.381 0.033,-0.765 -0.046,-1.144 -0.149,-0.477 -0.656,-0.747 -1.136,-0.722 -2.99,-0.025 -5.981,0.042 -8.976,0.019 -0.627,-0.074 -1.179,0.546 -1.146,1.148 -0.006,10.559 -0.006,21.114 -0.006,31.667 -0.017,0.598 0.536,1.184 1.146,1.132 C -7.15,1.096 -4.109,1.106 -1.068,1.092 -0.49,1.092 -0.01,0.571 0,0"
       style="fill:#241d10;fill-opacity:1;fill-rule:nonzero;stroke:none"
       transform="matrix(1.3333333,0,0,-1.3333333,215.6016,31.638667)"
       clip-path="url(#clipPath45)" />
    <path
       id="path46"
       d="m 0,0 c 1.074,0.103 2.166,0.016 3.242,0.046 2.038,0 4.076,-0.002 6.115,0 0.616,0.065 1.236,-0.498 1.184,-1.127 v -31.797 c 0.023,-0.616 -0.583,-1.088 -1.175,-1.046 -2.986,-0.014 -5.981,0.046 -8.97,0.013 -0.635,-0.074 -1.219,0.553 -1.165,1.171 0.005,10.554 0,21.101 0.005,31.65 C -0.786,-0.611 -0.446,-0.157 0,0"
       style="fill:#241d10;fill-opacity:1;fill-rule:nonzero;stroke:none"
       transform="matrix(1.3333333,0,0,-1.3333333,178.6816,30.234)"
       clip-path="url(#clipPath47)" />
    <path
       id="path48"
       d="m 0,0 c -0.021,0.025 -0.073,0.077 -0.098,0.101 -0.038,1.513 0.275,3.182 1.386,4.294 0.697,0.756 1.72,1.1 2.71,1.266 1.552,0.122 3.296,0.1 4.551,-0.96 1.33,-1.143 1.674,-3.032 1.628,-4.704 C 6.783,-0.003 3.391,-0.013 0,0 m 21.472,-5.118 c -0.055,2.301 0.141,4.621 -0.174,6.907 -0.395,2.818 -1.6,5.574 -3.648,7.585 -1.654,1.669 -3.774,2.846 -6.024,3.501 -2.644,0.801 -5.447,0.97 -8.191,0.782 C 0.894,13.426 -1.651,12.852 -3.924,11.663 -6.215,10.5 -8.226,8.728 -9.536,6.502 c -1.282,-2.103 -1.88,-4.585 -1.889,-7.036 -0.032,-1.434 -0.008,-2.875 -0.015,-4.31 0.013,-1.769 -0.077,-3.568 0.331,-5.305 0.541,-2.59 1.935,-4.976 3.864,-6.781 1.671,-1.54 3.683,-2.704 5.838,-3.427 2.565,-0.888 5.299,-1.229 8.006,-1.162 4.47,0.041 8.967,0.714 13.164,2.291 0.554,0.17 0.863,0.804 0.714,1.355 -0.274,0.955 -0.573,1.896 -0.813,2.863 l -0.054,0.092 c -0.302,1.048 -0.595,2.101 -0.938,3.133 -0.233,0.731 -1.146,0.764 -1.753,0.538 -0.176,-0.049 -0.352,-0.1 -0.529,-0.144 -3.294,-0.758 -6.674,-1.269 -10.063,-1.135 -1.381,0.09 -2.789,0.31 -4.036,0.939 -0.978,0.479 -1.74,1.338 -2.12,2.354 -0.163,0.606 -0.301,1.231 -0.276,1.861 6.579,0.017 13.157,0.006 19.734,0.006 0.509,0.017 1.128,-0.095 1.503,0.34 0.511,0.499 0.294,1.274 0.34,1.908"
       style="fill:#241d10;fill-opacity:1;fill-rule:nonzero;stroke:none"
       transform="matrix(1.3333333,0,0,-1.3333333,51.8104,47.680667)"
       clip-path="url(#clipPath49)" />
    <path
       id="path50"
       d="m 0,0 c -0.163,-0.021 -0.329,-0.042 -0.486,-0.067 -1.615,-0.276 -3.261,-0.499 -4.895,-0.341 -0.961,0.127 -1.891,0.724 -2.188,1.681 -0.239,0.932 -0.128,1.908 -0.137,2.859 0.137,0.818 0.516,1.674 1.284,2.07 0.851,0.523 1.869,0.452 2.819,0.504 C -2.924,6.662 -2.239,6.66 -1.56,6.711 -1.041,6.662 -0.515,6.678 0.01,6.675 0.006,4.449 0.021,2.224 0,0 m 9.094,20.748 c -1.361,2.033 -3.36,3.591 -5.592,4.563 -2.53,1.094 -5.312,1.506 -8.055,1.513 -3.645,-0.019 -7.299,-0.516 -10.806,-1.532 -0.398,-0.114 -0.852,-0.222 -1.087,-0.593 -0.261,-0.332 -0.257,-0.782 -0.117,-1.162 0.519,-1.654 1.037,-3.305 1.554,-4.961 0.155,-0.483 0.266,-1.075 0.769,-1.326 0.517,-0.304 1.093,-0.006 1.619,0.123 2.006,0.541 4.088,0.837 6.166,0.856 1.349,0.005 2.729,-0.022 4.015,-0.459 0.834,-0.281 1.61,-0.83 1.983,-1.641 0.446,-0.976 0.472,-2.075 0.472,-3.129 -2.11,-0.008 -4.221,0 -6.336,-0.005 -2.411,0.033 -4.905,-0.155 -7.117,-1.187 -2.023,-0.919 -3.714,-2.563 -4.639,-4.588 -1.158,-2.503 -1.37,-5.389 -0.807,-8.07 0.434,-2.07 1.542,-4.03 3.247,-5.306 2.033,-1.56 4.639,-2.111 7.155,-2.261 2.862,-0.093 5.845,0.19 8.446,1.489 0.239,-0.382 0.536,-0.857 1.05,-0.847 3.078,0.013 6.159,0.005 9.242,0.007 0.514,-0.046 0.93,0.37 1.081,0.835 v 20.748 c -0.163,2.444 -0.852,4.897 -2.243,6.933"
       style="fill:#241d10;fill-opacity:1;fill-rule:nonzero;stroke:none"
       transform="matrix(1.3333333,0,0,-1.3333333,273.2856,65.081333)"
       clip-path="url(#clipPath51)" />
    <path
       id="path52"
       d="M 281.465,93.45 H 2 V 29.541 h 279.465 z m 2,-65.909 H 0 v 67.91 h 283.465 z"
       style="fill:#241d10;fill-opacity:1;fill-rule:nonzero;stroke:none"
       transform="matrix(1.3333333,0,0,-1.3333333,0,127.268)"
       clip-path="url(#clipPath53)" />
    <path
       id="path54"
       d="M 0,0 88.057,4.615 85.899,45.793 -2.158,41.178 Z"
       style="fill:#ffffff;fill-opacity:1;fill-rule:nonzero;stroke:none"
       transform="matrix(1.3333333,0,0,-1.3333333,215.9828,126.93533)"
       clip-path="url(#clipPath55)" />
    <path
       id="path56"
       d="M 0,0 25.675,1.346 23.534,42.204 -2.141,40.858 Z"
       style="fill:#ee2922;fill-opacity:1;fill-rule:nonzero;stroke:none"
       transform="matrix(1.3333333,0,0,-1.3333333,332.9664,120.52893)"
       clip-path="url(#clipPath57)" />
    <path
       id="path58"
       d="M 0,0 115.073,6.031 112.893,47.635 -2.18,41.604 Z M -0.131,39.91 110.982,45.565 113.024,7.725 1.911,2.07 Z"
       style="fill:#241d10;fill-opacity:1;fill-rule:nonzero;stroke:none"
       transform="matrix(1.3333333,0,0,-1.3333333,215.03453,127.26987)"
       clip-path="url(#clipPath59)" />
    <path
       id="path60"
       d="m 0,0 -5.13,7.497 -4.317,-7.992 -6.952,-0.364 7.254,12.84 -8.266,11.659 6.901,0.362 4.89,-7.143 4.116,7.615 6.902,0.361 L -1.605,12.377 6.952,0.364 Z"
       style="fill:#241d10;fill-opacity:1;fill-rule:nonzero;stroke:none"
       transform="matrix(1.3333333,0,0,-1.3333333,247.15987,114.0312)"
       clip-path="url(#clipPath61)" />
    <path
       id="path62"
       d="m 0,0 -8.557,12.012 7.003,12.459 -6.902,-0.362 -4.116,-7.615 -4.89,7.143 -6.902,-0.361 8.267,-11.659 -7.255,-12.841 6.953,0.365 4.317,7.991 5.13,-7.496 z"
       style="fill:#241d10;fill-opacity:1;fill-rule:nonzero;stroke:none"
       transform="matrix(1.3333333,0,0,-1.3333333,326.53293,109.87147)"
       clip-path="url(#clipPath63)" />
    <path
       id="path64"
       d="m 0,0 -8.557,12.012 7.003,12.459 -6.902,-0.362 -4.116,-7.615 -4.89,7.143 -6.902,-0.361 8.267,-11.659 -7.255,-12.841 6.953,0.365 4.317,7.991 5.13,-7.496 z"
       style="fill:#241d10;fill-opacity:1;fill-rule:nonzero;stroke:none"
       transform="matrix(1.3333333,0,0,-1.3333333,291.58173,111.7032)"
       clip-path="url(#clipPath65)" />
    <path
       id="path66"
       d="m 0,0 -8.176,-0.428 -0.988,18.862 -6.012,-0.315 1.281,-24.442 14.187,0.743 z"
       style="fill:#ffffff;fill-opacity:1;fill-rule:nonzero;stroke:none"
       transform="matrix(1.3333333,0,0,-1.3333333,358.1836,100.75267)"
       clip-path="url(#clipPath67)" />
  </g>
  <g
     id="layer-MC3"
     inkscape:groupmode="layer"
     inkscape:label="w"
     style="display:none">
    <path
       id="path68"
       d="m 0,0 c 3.112,0.049 6.229,0.003 9.341,0.022 0.639,0.077 1.187,-0.557 1.15,-1.171 0,-14.126 -0.004,-28.252 0,-42.379 -0.013,-0.44 0.089,-0.957 -0.256,-1.303 -0.236,-0.33 -0.647,-0.444 -1.036,-0.425 -2.948,0.004 -5.896,-0.008 -8.842,0.005 -0.59,-0.045 -1.207,0.421 -1.161,1.047 -0.005,14.395 -0.003,28.787 -0.003,43.182 C -0.836,-0.541 -0.461,-0.098 0,0"
       style="fill:#ffffff;fill-opacity:1;fill-rule:nonzero;stroke:none"
       transform="matrix(1.3333333,0,0,-1.3333333,17.743867,15.129733)"
       clip-path="url(#clipPath69)" />
    <path
       id="path70"
       d="m 0,0 c 0.217,0.207 0.519,0.253 0.813,0.243 3.763,-0.006 7.519,0 11.284,-0.004 0.633,0.06 1.12,-0.562 1.125,-1.154 0.01,-1.456 0,-2.911 0.004,-4.367 0.044,-0.639 -0.482,-1.305 -1.146,-1.283 -3.755,-0.005 -7.508,0 -11.267,-0.003 -0.691,-0.057 -1.247,0.601 -1.232,1.264 -0.048,1.421 0.017,2.84 -0.011,4.259 C -0.35,-0.679 -0.329,-0.244 0,0"
       style="fill:#ffffff;fill-opacity:1;fill-rule:nonzero;stroke:none"
       transform="matrix(1.3333333,0,0,-1.3333333,176.67093,15.4244)"
       clip-path="url(#clipPath71)" />
    <path
       id="path72"
       d="m 0,0 c 2.896,0.858 5.962,0.962 8.963,0.783 2.475,-0.155 4.937,-0.541 7.345,-1.133 0.924,-0.237 1.826,-0.525 2.729,-0.837 0.432,-0.136 0.872,-0.487 0.878,-0.974 0.061,-0.611 -0.256,-1.16 -0.406,-1.733 -0.462,-1.513 -0.986,-3.008 -1.41,-4.53 -0.144,-0.378 -0.433,-0.726 -0.84,-0.824 -0.423,-0.105 -0.835,0.082 -1.225,0.214 -0.074,0.019 -0.224,0.058 -0.294,0.077 -2.606,0.742 -5.285,1.357 -8.009,1.307 -1.026,0.006 -2.109,0.041 -3.057,-0.41 -1.217,-0.533 -1.337,-2.476 -0.258,-3.21 0.783,-0.486 1.741,-0.543 2.639,-0.573 2.486,0.052 4.992,-0.387 7.28,-1.384 2.862,-1.247 5.275,-3.676 6.142,-6.72 0.698,-2.467 0.704,-5.188 -0.272,-7.577 -0.6,-1.445 -1.62,-2.696 -2.834,-3.668 -1.459,-1.185 -3.22,-1.939 -5.023,-2.44 -1.983,-0.536 -4.049,-0.797 -6.105,-0.758 -4.518,-0.042 -9.111,0.369 -13.379,1.917 -0.612,0.218 -0.848,0.969 -0.617,1.541 0.552,1.812 1.122,3.617 1.657,5.437 0.09,0.407 0.308,0.824 0.718,0.991 0.38,0.253 0.821,0.044 1.215,-0.055 2.481,-0.624 5.014,-1.048 7.56,-1.271 1.128,-0.063 2.259,-0.046 3.389,-0.046 0.935,0.032 2.005,0.23 2.592,1.037 0.359,0.468 0.356,1.087 0.297,1.645 -0.163,0.359 -0.299,0.759 -0.645,0.981 -0.844,0.595 -1.929,0.614 -2.924,0.601 -1.269,0.072 -2.546,0.097 -3.79,0.38 -2.7,0.538 -5.327,1.786 -7.189,3.851 -1.813,1.98 -2.758,4.69 -2.701,7.362 -0.038,2.097 0.451,4.241 1.631,5.997 1.318,1.962 3.437,3.226 5.647,3.954 C -0.223,-0.054 -0.074,-0.016 0,0"
       style="fill:#ffffff;fill-opacity:1;fill-rule:nonzero;stroke:none"
       transform="matrix(1.3333333,0,0,-1.3333333,94.8344,30.4624)"
       clip-path="url(#clipPath73)" />
    <path
       id="path74"
       d="m 0,0 c 2.889,1.166 6.014,1.982 9.149,1.672 1.099,-0.087 2.183,-0.329 3.236,-0.652 2.535,-0.8 4.78,-2.501 6.197,-4.757 1.295,-2.021 1.928,-4.396 2.161,-6.765 0.169,-2.624 0.058,-5.249 0.1,-7.873 -0.059,-2.264 0.058,-4.531 -0.042,-6.796 0.095,-1.761 -0.017,-3.521 0.042,-5.282 -0.027,-0.564 0.063,-1.15 -0.1,-1.703 -0.166,-0.469 -0.658,-0.748 -1.142,-0.716 -2.994,0 -5.986,-0.015 -8.981,0.006 -0.619,-0.038 -1.177,0.559 -1.119,1.171 0.005,6.206 0,12.407 0,18.607 0.005,1.169 0,2.37 -0.423,3.476 C 8.716,-8.587 7.866,-7.745 6.816,-7.451 5.101,-6.943 3.237,-7.362 1.683,-8.16 1.04,-8.468 0.484,-8.919 -0.028,-9.402 c -0.04,-7.477 0,-14.956 -0.021,-22.432 -0.007,-0.431 -0.344,-0.779 -0.698,-0.973 -0.368,-0.095 -0.75,-0.065 -1.122,-0.071 -2.807,0.004 -5.62,0.041 -8.422,0.031 -0.557,-0.04 -1.091,0.465 -1.041,1.028 -0.006,10.636 -0.006,21.275 0,31.912 -0.033,0.478 0.389,0.818 0.78,1 C -7.43,1.1 -4.305,1.096 -1.184,1.096 -0.562,1.144 -0.074,0.58 0,0"
       style="fill:#ffffff;fill-opacity:1;fill-rule:nonzero;stroke:none"
       transform="matrix(1.3333333,0,0,-1.3333333,142.404,31.637333)"
       clip-path="url(#clipPath75)" />
    <path
       id="path76"
       d="m 0,0 c 1.074,0.103 2.166,0.016 3.242,0.046 2.038,0 4.076,-0.002 6.115,0 0.616,0.065 1.236,-0.498 1.184,-1.127 v -31.797 c 0.023,-0.616 -0.583,-1.088 -1.175,-1.046 -2.986,-0.014 -5.981,0.046 -8.97,0.013 -0.635,-0.074 -1.219,0.553 -1.165,1.171 0.005,10.554 0,21.101 0.005,31.65 C -0.786,-0.611 -0.446,-0.157 0,0"
       style="fill:#ffffff;fill-opacity:1;fill-rule:nonzero;stroke:none"
       transform="matrix(1.3333333,0,0,-1.3333333,178.6816,30.234)"
       clip-path="url(#clipPath77)" />
    <path
       id="path78"
       d="m 0,0 c -0.021,0.025 -0.073,0.077 -0.098,0.101 -0.038,1.513 0.275,3.182 1.386,4.294 0.697,0.756 1.72,1.1 2.71,1.266 1.552,0.122 3.296,0.1 4.551,-0.96 1.33,-1.143 1.674,-3.032 1.628,-4.704 C 6.783,-0.003 3.391,-0.013 0,0 m 21.472,-5.118 c -0.055,2.301 0.141,4.621 -0.174,6.907 -0.395,2.818 -1.6,5.574 -3.648,7.585 -1.654,1.669 -3.774,2.846 -6.024,3.501 -2.644,0.801 -5.447,0.97 -8.191,0.782 C 0.894,13.426 -1.651,12.852 -3.924,11.663 -6.215,10.5 -8.226,8.728 -9.536,6.502 c -1.282,-2.103 -1.88,-4.585 -1.889,-7.036 -0.032,-1.434 -0.008,-2.875 -0.015,-4.31 0.013,-1.769 -0.077,-3.568 0.331,-5.305 0.541,-2.59 1.935,-4.976 3.864,-6.781 1.671,-1.54 3.683,-2.704 5.838,-3.427 2.565,-0.888 5.299,-1.229 8.006,-1.162 4.47,0.041 8.967,0.714 13.164,2.291 0.554,0.17 0.863,0.804 0.714,1.355 -0.274,0.955 -0.573,1.896 -0.813,2.863 l -0.054,0.092 c -0.302,1.048 -0.595,2.101 -0.938,3.133 -0.233,0.731 -1.146,0.764 -1.753,0.538 -0.176,-0.049 -0.352,-0.1 -0.529,-0.144 -3.294,-0.758 -6.674,-1.269 -10.063,-1.135 -1.381,0.09 -2.789,0.31 -4.036,0.939 -0.978,0.479 -1.74,1.338 -2.12,2.354 -0.163,0.606 -0.301,1.231 -0.276,1.861 6.579,0.017 13.157,0.006 19.734,0.006 0.509,0.017 1.128,-0.095 1.503,0.34 0.511,0.499 0.294,1.274 0.34,1.908"
       style="fill:#ffffff;fill-opacity:1;fill-rule:nonzero;stroke:none"
       transform="matrix(1.3333333,0,0,-1.3333333,51.8104,47.680667)"
       clip-path="url(#clipPath79)" />
    <path
       id="path80"
       d="M 0,0 C 0.138,0.818 0.517,1.674 1.284,2.071 2.136,2.593 3.154,2.522 4.103,2.574 4.782,2.53 5.467,2.528 6.147,2.58 6.665,2.53 7.192,2.546 7.716,2.543 7.712,0.318 7.728,-1.908 7.706,-4.132 7.544,-4.153 7.377,-4.174 7.22,-4.199 5.605,-4.474 3.959,-4.698 2.325,-4.539 1.365,-4.413 0.434,-3.816 0.138,-2.859 -0.101,-1.927 0.01,-0.951 0,0 m -10.044,-7.909 29.087,1.525 V 9.683 c -0.162,2.444 -0.851,4.897 -2.243,6.934 -1.36,2.032 -3.36,3.59 -5.591,4.562 -2.53,1.095 -5.313,1.506 -8.055,1.514 C -0.492,22.674 -4.145,22.176 -7.653,21.16 -8.051,21.046 -8.505,20.938 -8.74,20.568 -9,20.235 -8.996,19.785 -8.857,19.405 c 0.519,-1.653 1.038,-3.305 1.554,-4.96 0.155,-0.484 0.266,-1.076 0.77,-1.327 0.516,-0.304 1.092,-0.005 1.619,0.123 2.005,0.541 4.087,0.837 6.166,0.856 1.349,0.005 2.728,-0.022 4.014,-0.459 0.835,-0.28 1.61,-0.83 1.983,-1.641 C 7.695,11.021 7.722,9.922 7.722,8.868 5.611,8.86 3.5,8.868 1.386,8.863 -1.026,8.896 -3.519,8.708 -5.732,7.676 -7.754,6.757 -9.446,5.113 -10.37,3.089 c -1.158,-2.503 -1.371,-5.389 -0.808,-8.07 0.215,-1.027 0.597,-2.025 1.134,-2.928"
       style="fill:#ffffff;fill-opacity:1;fill-rule:nonzero;stroke:none"
       transform="matrix(1.3333333,0,0,-1.3333333,263.0104,59.5724)"
       clip-path="url(#clipPath81)" />
    <path
       id="path82"
       d="m 0,0 1.845,0.097 v 20.389 c -0.03,0.296 0.155,0.554 0.377,0.731 1.175,0.971 2.624,1.607 4.134,1.791 1.106,0.163 2.294,0.014 3.272,-0.565 0.785,-0.514 1.3,-1.362 1.533,-2.258 0.368,-1.411 0.251,-2.878 0.272,-4.324 0,-5.083 -0.002,-10.173 0.005,-15.262 L 22.73,1.191 c -0.003,5.934 0.005,11.864 -0.008,17.795 -0.09,1.224 -0.234,2.449 -0.542,3.639 -0.679,2.633 -2.103,5.157 -4.298,6.813 -2.009,1.559 -4.522,2.37 -7.044,2.541 -3.079,0.285 -6.12,-0.585 -8.966,-1.685 -0.009,0.571 -0.49,1.092 -1.068,1.092 -3.041,0.014 -6.082,0.004 -9.122,0.005 -0.611,0.052 -1.164,-0.534 -1.147,-1.132 0,-10.553 0,-21.108 0.006,-31.667 -0.033,-0.602 0.519,-1.222 1.146,-1.148 2.819,0.022 5.634,-0.032 8.448,-0.018 z"
       style="fill:#ffffff;fill-opacity:1;fill-rule:nonzero;stroke:none"
       transform="matrix(1.3333333,0,0,-1.3333333,213.10533,72.030667)"
       clip-path="url(#clipPath83)" />
    <path
       id="path84"
       d="M 0,0 115.073,6.031 112.893,47.635 -2.18,41.604 Z M -0.131,39.91 110.982,45.565 113.024,7.725 1.911,2.07 Z"
       style="fill:#ffffff;fill-opacity:1;fill-rule:nonzero;stroke:none"
       transform="matrix(1.3333333,0,0,-1.3333333,215.03453,127.26987)"
       clip-path="url(#clipPath85)" />
    <path
       id="path86"
       d="m 0,0 -5.13,7.497 -4.317,-7.992 -6.952,-0.364 7.254,12.84 -8.266,11.659 6.901,0.362 4.89,-7.143 4.116,7.615 6.902,0.361 L -1.605,12.377 6.952,0.364 Z"
       style="fill:#ffffff;fill-opacity:1;fill-rule:nonzero;stroke:none"
       transform="matrix(1.3333333,0,0,-1.3333333,247.15987,114.0312)"
       clip-path="url(#clipPath87)" />
    <path
       id="path88"
       d="m 0,0 -8.557,12.012 7.003,12.459 -6.902,-0.362 -4.116,-7.615 -4.89,7.143 -6.902,-0.361 8.267,-11.659 -7.255,-12.841 6.953,0.365 4.317,7.991 5.13,-7.496 z"
       style="fill:#ffffff;fill-opacity:1;fill-rule:nonzero;stroke:none"
       transform="matrix(1.3333333,0,0,-1.3333333,326.53293,109.87147)"
       clip-path="url(#clipPath89)" />
    <path
       id="path90"
       d="m 0,0 -8.557,12.012 7.003,12.459 -6.902,-0.362 -4.116,-7.615 -4.89,7.143 -6.902,-0.361 8.267,-11.659 -7.255,-12.841 6.953,0.365 4.317,7.991 5.13,-7.496 z"
       style="fill:#ffffff;fill-opacity:1;fill-rule:nonzero;stroke:none"
       transform="matrix(1.3333333,0,0,-1.3333333,291.58173,111.7032)"
       clip-path="url(#clipPath91)" />
    <path
       id="path92"
       d="M 0,0 -1.282,24.442 4.73,24.757 5.719,5.895 13.895,6.323 14.187,0.744 Z M 18.516,33.695 -7.16,32.349 -5.018,-8.509 20.657,-7.163 Z"
       style="fill:#ffffff;fill-opacity:1;fill-rule:nonzero;stroke:none"
       transform="matrix(1.3333333,0,0,-1.3333333,339.65747,109.1836)"
       clip-path="url(#clipPath93)" />
    <path
       id="path94"
       d="m 0,0 v -67.91 h 160.557 l -0.105,2 H 2 V -2.001 H 281.465 V -65.91 h -7.278 l 0.105,-2 h 9.173 V 0 Z"
       style="fill:#ffffff;fill-opacity:1;fill-rule:nonzero;stroke:none"
       transform="scale(1.3333333,-1.3333333)"
       clip-path="url(#clipPath95)" />
  </g>
  <g
     id="layer-MC4"
     inkscape:groupmode="layer"
     inkscape:label="s"
     style="display:none">
    <path
       id="path96"
       d="M 1.242,29.011 H 282.596 V 94.322 H 1.242 Z"
       style="fill:#ffffff;fill-opacity:1;fill-rule:nonzero;stroke:none"
       transform="matrix(1.3333333,0,0,-1.3333333,0,127.268)" />
    <path
       id="path97"
       d="m 0,0 c 3.112,0.049 6.229,0.003 9.341,0.022 0.639,0.077 1.187,-0.557 1.15,-1.171 0,-14.126 -0.004,-28.252 0,-42.379 -0.013,-0.44 0.089,-0.957 -0.256,-1.303 -0.236,-0.33 -0.647,-0.444 -1.036,-0.425 -2.948,0.004 -5.896,-0.008 -8.842,0.005 -0.59,-0.045 -1.207,0.421 -1.161,1.047 -0.005,14.395 -0.003,28.787 -0.003,43.182 C -0.836,-0.541 -0.461,-0.098 0,0"
       style="fill:#231f20;fill-opacity:1;fill-rule:nonzero;stroke:none"
       transform="matrix(1.3333333,0,0,-1.3333333,17.743867,15.129733)"
       clip-path="url(#clipPath98)" />
    <path
       id="path99"
       d="m 0,0 c 0.217,0.207 0.519,0.253 0.813,0.243 3.763,-0.006 7.519,0 11.284,-0.004 0.633,0.06 1.12,-0.562 1.125,-1.154 0.01,-1.456 0,-2.911 0.004,-4.367 0.044,-0.639 -0.482,-1.305 -1.146,-1.283 -3.755,-0.005 -7.508,0 -11.267,-0.003 -0.691,-0.057 -1.247,0.601 -1.232,1.264 -0.048,1.421 0.017,2.84 -0.011,4.259 C -0.35,-0.679 -0.329,-0.244 0,0"
       style="fill:#231f20;fill-opacity:1;fill-rule:nonzero;stroke:none"
       transform="matrix(1.3333333,0,0,-1.3333333,176.67093,15.4244)"
       clip-path="url(#clipPath100)" />
    <path
       id="path101"
       d="m 0,0 c 2.896,0.858 5.962,0.962 8.963,0.783 2.475,-0.155 4.937,-0.541 7.345,-1.133 0.924,-0.237 1.826,-0.525 2.729,-0.837 0.432,-0.136 0.872,-0.487 0.878,-0.974 0.061,-0.611 -0.256,-1.16 -0.406,-1.733 -0.462,-1.513 -0.986,-3.008 -1.41,-4.53 -0.144,-0.378 -0.433,-0.726 -0.84,-0.824 -0.423,-0.105 -0.835,0.082 -1.225,0.214 -0.074,0.019 -0.224,0.058 -0.294,0.077 -2.606,0.742 -5.285,1.357 -8.009,1.307 -1.026,0.006 -2.109,0.041 -3.057,-0.41 -1.217,-0.533 -1.337,-2.476 -0.258,-3.21 0.783,-0.486 1.741,-0.543 2.639,-0.573 2.486,0.052 4.992,-0.387 7.28,-1.384 2.862,-1.247 5.275,-3.676 6.142,-6.72 0.698,-2.467 0.704,-5.188 -0.272,-7.577 -0.6,-1.445 -1.62,-2.696 -2.834,-3.668 -1.459,-1.185 -3.22,-1.939 -5.023,-2.44 -1.983,-0.536 -4.049,-0.797 -6.105,-0.758 -4.518,-0.042 -9.111,0.369 -13.379,1.917 -0.612,0.218 -0.848,0.969 -0.617,1.541 0.552,1.812 1.122,3.617 1.657,5.437 0.09,0.407 0.308,0.824 0.718,0.991 0.38,0.253 0.821,0.044 1.215,-0.055 2.481,-0.624 5.014,-1.048 7.56,-1.271 1.128,-0.063 2.259,-0.046 3.389,-0.046 0.935,0.032 2.005,0.23 2.592,1.037 0.359,0.468 0.356,1.087 0.297,1.645 -0.163,0.359 -0.299,0.759 -0.645,0.981 -0.844,0.595 -1.929,0.614 -2.924,0.601 -1.269,0.072 -2.546,0.097 -3.79,0.38 -2.7,0.538 -5.327,1.786 -7.189,3.851 -1.813,1.98 -2.758,4.69 -2.701,7.362 -0.038,2.097 0.451,4.241 1.631,5.997 1.318,1.962 3.437,3.226 5.647,3.954 C -0.223,-0.054 -0.074,-0.016 0,0"
       style="fill:#231f20;fill-opacity:1;fill-rule:nonzero;stroke:none"
       transform="matrix(1.3333333,0,0,-1.3333333,94.8344,30.4624)"
       clip-path="url(#clipPath102)" />
    <path
       id="path103"
       d="m 0,0 c 2.889,1.166 6.014,1.982 9.149,1.672 1.099,-0.087 2.183,-0.329 3.236,-0.652 2.535,-0.8 4.78,-2.501 6.197,-4.757 1.295,-2.021 1.928,-4.396 2.161,-6.765 0.169,-2.624 0.058,-5.249 0.1,-7.873 -0.059,-2.264 0.058,-4.531 -0.042,-6.796 0.095,-1.761 -0.017,-3.521 0.042,-5.282 -0.027,-0.564 0.063,-1.15 -0.1,-1.703 -0.166,-0.469 -0.658,-0.748 -1.142,-0.716 -2.994,0 -5.986,-0.015 -8.981,0.006 -0.619,-0.038 -1.177,0.559 -1.119,1.171 0.005,6.206 0,12.407 0,18.607 0.005,1.169 0,2.37 -0.423,3.476 C 8.716,-8.587 7.866,-7.745 6.816,-7.451 5.101,-6.943 3.237,-7.362 1.683,-8.16 1.04,-8.468 0.484,-8.919 -0.028,-9.402 c -0.04,-7.477 0,-14.956 -0.021,-22.432 -0.007,-0.431 -0.344,-0.779 -0.698,-0.973 -0.368,-0.095 -0.75,-0.065 -1.122,-0.071 -2.807,0.004 -5.62,0.041 -8.422,0.031 -0.557,-0.04 -1.091,0.465 -1.041,1.028 -0.006,10.636 -0.006,21.275 0,31.912 -0.033,0.478 0.389,0.818 0.78,1 C -7.43,1.1 -4.305,1.096 -1.184,1.096 -0.562,1.144 -0.074,0.58 0,0"
       style="fill:#231f20;fill-opacity:1;fill-rule:nonzero;stroke:none"
       transform="matrix(1.3333333,0,0,-1.3333333,142.404,31.637333)"
       clip-path="url(#clipPath104)" />
    <path
       id="path105"
       d="m 0,0 c 2.846,1.1 5.887,1.97 8.966,1.685 2.522,-0.171 5.035,-0.982 7.044,-2.541 2.195,-1.656 3.619,-4.18 4.298,-6.813 0.308,-1.191 0.452,-2.415 0.542,-3.639 0.015,-6.791 0,-13.579 0.009,-20.374 0.081,-0.636 -0.52,-1.229 -1.152,-1.187 -2.989,-0.013 -5.969,-0.006 -8.96,-0.004 -0.599,-0.046 -1.203,0.433 -1.18,1.053 -0.012,5.797 -0.006,11.596 -0.006,17.387 -0.021,1.446 0.095,2.913 -0.272,4.324 C 9.056,-9.213 8.541,-8.365 7.756,-7.851 6.778,-7.272 5.59,-7.123 4.484,-7.286 2.974,-7.47 1.525,-8.106 0.35,-9.077 0.128,-9.254 -0.057,-9.512 -0.027,-9.808 v -21.195 c -0.006,-0.381 0.033,-0.765 -0.046,-1.144 -0.149,-0.477 -0.656,-0.747 -1.136,-0.722 -2.99,-0.025 -5.981,0.042 -8.976,0.019 -0.627,-0.074 -1.179,0.546 -1.146,1.148 -0.006,10.559 -0.006,21.114 -0.006,31.667 -0.017,0.598 0.536,1.184 1.146,1.132 C -7.15,1.096 -4.109,1.106 -1.068,1.092 -0.49,1.092 -0.01,0.571 0,0"
       style="fill:#231f20;fill-opacity:1;fill-rule:nonzero;stroke:none"
       transform="matrix(1.3333333,0,0,-1.3333333,215.6016,31.638667)"
       clip-path="url(#clipPath106)" />
    <path
       id="path107"
       d="m 0,0 c 1.074,0.103 2.166,0.016 3.242,0.046 2.038,0 4.076,-0.002 6.115,0 0.616,0.065 1.236,-0.498 1.184,-1.127 v -31.797 c 0.023,-0.616 -0.583,-1.088 -1.175,-1.046 -2.986,-0.014 -5.981,0.046 -8.97,0.013 -0.635,-0.074 -1.219,0.553 -1.165,1.171 0.005,10.554 0,21.101 0.005,31.65 C -0.786,-0.611 -0.446,-0.157 0,0"
       style="fill:#231f20;fill-opacity:1;fill-rule:nonzero;stroke:none"
       transform="matrix(1.3333333,0,0,-1.3333333,178.6816,30.234)"
       clip-path="url(#clipPath108)" />
    <path
       id="path109"
       d="m 0,0 c -0.021,0.025 -0.073,0.077 -0.098,0.101 -0.038,1.513 0.275,3.182 1.386,4.294 0.697,0.756 1.72,1.1 2.71,1.266 1.552,0.122 3.296,0.1 4.551,-0.96 1.33,-1.143 1.674,-3.032 1.628,-4.704 C 6.783,-0.003 3.391,-0.013 0,0 m 21.472,-5.118 c -0.055,2.301 0.141,4.621 -0.174,6.907 -0.395,2.818 -1.6,5.574 -3.648,7.585 -1.654,1.669 -3.774,2.846 -6.024,3.501 -2.644,0.801 -5.447,0.97 -8.191,0.782 C 0.894,13.426 -1.651,12.852 -3.924,11.663 -6.215,10.5 -8.226,8.728 -9.536,6.502 c -1.282,-2.103 -1.88,-4.585 -1.889,-7.036 -0.032,-1.434 -0.008,-2.875 -0.015,-4.31 0.013,-1.769 -0.077,-3.568 0.331,-5.305 0.541,-2.59 1.935,-4.976 3.864,-6.781 1.671,-1.54 3.683,-2.704 5.838,-3.427 2.565,-0.888 5.299,-1.229 8.006,-1.162 4.47,0.041 8.967,0.714 13.164,2.291 0.554,0.17 0.863,0.804 0.714,1.355 -0.274,0.955 -0.573,1.896 -0.813,2.863 l -0.054,0.092 c -0.302,1.048 -0.595,2.101 -0.938,3.133 -0.233,0.731 -1.146,0.764 -1.753,0.538 -0.176,-0.049 -0.352,-0.1 -0.529,-0.144 -3.294,-0.758 -6.674,-1.269 -10.063,-1.135 -1.381,0.09 -2.789,0.31 -4.036,0.939 -0.978,0.479 -1.74,1.338 -2.12,2.354 -0.163,0.606 -0.301,1.231 -0.276,1.861 6.579,0.017 13.157,0.006 19.734,0.006 0.509,0.017 1.128,-0.095 1.503,0.34 0.511,0.499 0.294,1.274 0.34,1.908"
       style="fill:#231f20;fill-opacity:1;fill-rule:nonzero;stroke:none"
       transform="matrix(1.3333333,0,0,-1.3333333,51.8104,47.680667)"
       clip-path="url(#clipPath110)" />
    <path
       id="path111"
       d="m 0,0 c -0.163,-0.021 -0.329,-0.042 -0.486,-0.067 -1.615,-0.276 -3.261,-0.499 -4.895,-0.341 -0.961,0.127 -1.891,0.724 -2.188,1.681 -0.239,0.932 -0.128,1.908 -0.137,2.859 0.137,0.818 0.516,1.674 1.284,2.07 0.851,0.523 1.869,0.452 2.819,0.504 C -2.924,6.662 -2.239,6.66 -1.56,6.711 -1.041,6.662 -0.515,6.678 0.01,6.675 0.006,4.449 0.021,2.224 0,0 m 9.094,20.748 c -1.361,2.033 -3.36,3.591 -5.592,4.563 -2.53,1.094 -5.312,1.506 -8.055,1.513 -3.645,-0.019 -7.299,-0.516 -10.806,-1.532 -0.398,-0.114 -0.852,-0.222 -1.087,-0.593 -0.261,-0.332 -0.257,-0.782 -0.117,-1.162 0.519,-1.654 1.037,-3.305 1.554,-4.961 0.155,-0.483 0.266,-1.075 0.769,-1.326 0.517,-0.304 1.093,-0.006 1.619,0.123 2.006,0.541 4.088,0.837 6.166,0.856 1.349,0.005 2.729,-0.022 4.015,-0.459 0.834,-0.281 1.61,-0.83 1.983,-1.641 0.446,-0.976 0.472,-2.075 0.472,-3.129 -2.11,-0.008 -4.221,0 -6.336,-0.005 -2.411,0.033 -4.905,-0.155 -7.117,-1.187 -2.023,-0.919 -3.714,-2.563 -4.639,-4.588 -1.158,-2.503 -1.37,-5.389 -0.807,-8.07 0.434,-2.07 1.542,-4.03 3.247,-5.306 2.033,-1.56 4.639,-2.111 7.155,-2.261 2.862,-0.093 5.845,0.19 8.446,1.489 0.239,-0.382 0.536,-0.857 1.05,-0.847 3.078,0.013 6.159,0.005 9.242,0.007 0.514,-0.046 0.93,0.37 1.081,0.835 v 20.748 c -0.163,2.444 -0.852,4.897 -2.243,6.933"
       style="fill:#231f20;fill-opacity:1;fill-rule:nonzero;stroke:none"
       transform="matrix(1.3333333,0,0,-1.3333333,273.2856,65.081333)"
       clip-path="url(#clipPath112)" />
    <path
       id="path113"
       d="M 281.465,93.45 H 2 V 29.541 h 279.465 z m 2,-65.909 H 0 v 67.91 h 283.465 z"
       style="fill:#231f20;fill-opacity:1;fill-rule:nonzero;stroke:none"
       transform="matrix(1.3333333,0,0,-1.3333333,0,127.268)"
       clip-path="url(#clipPath114)" />
    <path
       id="path115"
       d="M 0,0 88.057,4.615 85.899,45.793 -2.158,41.178 Z"
       style="fill:#ffffff;fill-opacity:1;fill-rule:nonzero;stroke:none"
       transform="matrix(1.3333333,0,0,-1.3333333,215.9828,126.93533)"
       clip-path="url(#clipPath116)" />
    <path
       id="path117"
       d="M 0,0 25.675,1.346 23.534,42.204 -2.141,40.858 Z"
       style="fill:#231f20;fill-opacity:1;fill-rule:nonzero;stroke:none"
       transform="matrix(1.3333333,0,0,-1.3333333,332.9664,120.52893)"
       clip-path="url(#clipPath118)" />
    <path
       id="path119"
       d="M 0,0 115.073,6.031 112.893,47.635 -2.18,41.604 Z M -0.131,39.91 110.982,45.565 113.024,7.725 1.911,2.07 Z"
       style="fill:#231f20;fill-opacity:1;fill-rule:nonzero;stroke:none"
       transform="matrix(1.3333333,0,0,-1.3333333,215.03453,127.26987)"
       clip-path="url(#clipPath120)" />
    <path
       id="path121"
       d="m 0,0 -5.13,7.497 -4.317,-7.992 -6.952,-0.364 7.254,12.84 -8.266,11.659 6.901,0.362 4.89,-7.143 4.116,7.615 6.902,0.361 L -1.605,12.377 6.952,0.364 Z"
       style="fill:#231f20;fill-opacity:1;fill-rule:nonzero;stroke:none"
       transform="matrix(1.3333333,0,0,-1.3333333,247.15987,114.0312)"
       clip-path="url(#clipPath122)" />
    <path
       id="path123"
       d="m 0,0 -8.557,12.012 7.003,12.459 -6.902,-0.362 -4.116,-7.615 -4.89,7.143 -6.902,-0.361 8.267,-11.659 -7.255,-12.841 6.953,0.365 4.317,7.991 5.13,-7.496 z"
       style="fill:#231f20;fill-opacity:1;fill-rule:nonzero;stroke:none"
       transform="matrix(1.3333333,0,0,-1.3333333,326.53293,109.87147)"
       clip-path="url(#clipPath124)" />
    <path
       id="path125"
       d="m 0,0 -8.557,12.012 7.003,12.459 -6.902,-0.362 -4.116,-7.615 -4.89,7.143 -6.902,-0.361 8.267,-11.659 -7.255,-12.841 6.953,0.365 4.317,7.991 5.13,-7.496 z"
       style="fill:#231f20;fill-opacity:1;fill-rule:nonzero;stroke:none"
       transform="matrix(1.3333333,0,0,-1.3333333,291.58173,111.7032)"
       clip-path="url(#clipPath126)" />
    <path
       id="path127"
       d="m 0,0 -8.176,-0.428 -0.988,18.862 -6.012,-0.315 1.281,-24.442 14.187,0.743 z"
       style="fill:#ffffff;fill-opacity:1;fill-rule:nonzero;stroke:none"
       transform="matrix(1.3333333,0,0,-1.3333333,358.1836,100.75267)"
       clip-path="url(#clipPath128)" />
  </g>
  <g
     id="layer-MC5"
     inkscape:groupmode="layer"
     inkscape:label="sw"
     style="display:none">
    <path
       id="path129"
       d="M 1.242,29.011 H 282.596 V 94.322 H 1.242 Z"
       style="fill:#e7e6e6;fill-opacity:1;fill-rule:nonzero;stroke:none"
       transform="matrix(1.3333333,0,0,-1.3333333,0,127.268)" />
    <path
       id="path130"
       d="m 0,0 c 3.112,0.049 6.229,0.003 9.341,0.022 0.639,0.077 1.187,-0.557 1.15,-1.171 0,-14.126 -0.004,-28.252 0,-42.379 -0.013,-0.44 0.089,-0.957 -0.256,-1.303 -0.236,-0.33 -0.647,-0.444 -1.036,-0.425 -2.948,0.004 -5.896,-0.008 -8.842,0.005 -0.59,-0.045 -1.207,0.421 -1.161,1.047 -0.005,14.395 -0.003,28.787 -0.003,43.182 C -0.836,-0.541 -0.461,-0.098 0,0"
       style="fill:#231f20;fill-opacity:1;fill-rule:nonzero;stroke:none"
       transform="matrix(1.3333333,0,0,-1.3333333,17.743867,15.129733)"
       clip-path="url(#clipPath131)" />
    <path
       id="path132"
       d="m 0,0 c 0.217,0.207 0.519,0.253 0.813,0.243 3.763,-0.006 7.519,0 11.284,-0.004 0.633,0.06 1.12,-0.562 1.125,-1.154 0.01,-1.456 0,-2.911 0.004,-4.367 0.044,-0.639 -0.482,-1.305 -1.146,-1.283 -3.755,-0.005 -7.508,0 -11.267,-0.003 -0.691,-0.057 -1.247,0.601 -1.232,1.264 -0.048,1.421 0.017,2.84 -0.011,4.259 C -0.35,-0.679 -0.329,-0.244 0,0"
       style="fill:#231f20;fill-opacity:1;fill-rule:nonzero;stroke:none"
       transform="matrix(1.3333333,0,0,-1.3333333,176.67093,15.4244)"
       clip-path="url(#clipPath133)" />
    <path
       id="path134"
       d="m 0,0 c 2.896,0.858 5.962,0.962 8.963,0.783 2.475,-0.155 4.937,-0.541 7.345,-1.133 0.924,-0.237 1.826,-0.525 2.729,-0.837 0.432,-0.136 0.872,-0.487 0.878,-0.974 0.061,-0.611 -0.256,-1.16 -0.406,-1.733 -0.462,-1.513 -0.986,-3.008 -1.41,-4.53 -0.144,-0.378 -0.433,-0.726 -0.84,-0.824 -0.423,-0.105 -0.835,0.082 -1.225,0.214 -0.074,0.019 -0.224,0.058 -0.294,0.077 -2.606,0.742 -5.285,1.357 -8.009,1.307 -1.026,0.006 -2.109,0.041 -3.057,-0.41 -1.217,-0.533 -1.337,-2.476 -0.258,-3.21 0.783,-0.486 1.741,-0.543 2.639,-0.573 2.486,0.052 4.992,-0.387 7.28,-1.384 2.862,-1.247 5.275,-3.676 6.142,-6.72 0.698,-2.467 0.704,-5.188 -0.272,-7.577 -0.6,-1.445 -1.62,-2.696 -2.834,-3.668 -1.459,-1.185 -3.22,-1.939 -5.023,-2.44 -1.983,-0.536 -4.049,-0.797 -6.105,-0.758 -4.518,-0.042 -9.111,0.369 -13.379,1.917 -0.612,0.218 -0.848,0.969 -0.617,1.541 0.552,1.812 1.122,3.617 1.657,5.437 0.09,0.407 0.308,0.824 0.718,0.991 0.38,0.253 0.821,0.044 1.215,-0.055 2.481,-0.624 5.014,-1.048 7.56,-1.271 1.128,-0.063 2.259,-0.046 3.389,-0.046 0.935,0.032 2.005,0.23 2.592,1.037 0.359,0.468 0.356,1.087 0.297,1.645 -0.163,0.359 -0.299,0.759 -0.645,0.981 -0.844,0.595 -1.929,0.614 -2.924,0.601 -1.269,0.072 -2.546,0.097 -3.79,0.38 -2.7,0.538 -5.327,1.786 -7.189,3.851 -1.813,1.98 -2.758,4.69 -2.701,7.362 -0.038,2.097 0.451,4.241 1.631,5.997 1.318,1.962 3.437,3.226 5.647,3.954 C -0.223,-0.054 -0.074,-0.016 0,0"
       style="fill:#231f20;fill-opacity:1;fill-rule:nonzero;stroke:none"
       transform="matrix(1.3333333,0,0,-1.3333333,94.8344,30.4624)"
       clip-path="url(#clipPath135)" />
    <path
       id="path136"
       d="m 0,0 c 2.889,1.166 6.014,1.982 9.149,1.672 1.099,-0.087 2.183,-0.329 3.236,-0.652 2.535,-0.8 4.78,-2.501 6.197,-4.757 1.295,-2.021 1.928,-4.396 2.161,-6.765 0.169,-2.624 0.058,-5.249 0.1,-7.873 -0.059,-2.264 0.058,-4.531 -0.042,-6.796 0.095,-1.761 -0.017,-3.521 0.042,-5.282 -0.027,-0.564 0.063,-1.15 -0.1,-1.703 -0.166,-0.469 -0.658,-0.748 -1.142,-0.716 -2.994,0 -5.986,-0.015 -8.981,0.006 -0.619,-0.038 -1.177,0.559 -1.119,1.171 0.005,6.206 0,12.407 0,18.607 0.005,1.169 0,2.37 -0.423,3.476 C 8.716,-8.587 7.866,-7.745 6.816,-7.451 5.101,-6.943 3.237,-7.362 1.683,-8.16 1.04,-8.468 0.484,-8.919 -0.028,-9.402 c -0.04,-7.477 0,-14.956 -0.021,-22.432 -0.007,-0.431 -0.344,-0.779 -0.698,-0.973 -0.368,-0.095 -0.75,-0.065 -1.122,-0.071 -2.807,0.004 -5.62,0.041 -8.422,0.031 -0.557,-0.04 -1.091,0.465 -1.041,1.028 -0.006,10.636 -0.006,21.275 0,31.912 -0.033,0.478 0.389,0.818 0.78,1 C -7.43,1.1 -4.305,1.096 -1.184,1.096 -0.562,1.144 -0.074,0.58 0,0"
       style="fill:#231f20;fill-opacity:1;fill-rule:nonzero;stroke:none"
       transform="matrix(1.3333333,0,0,-1.3333333,142.404,31.637333)"
       clip-path="url(#clipPath137)" />
    <path
       id="path138"
       d="m 0,0 c 2.846,1.1 5.887,1.97 8.966,1.685 2.522,-0.171 5.035,-0.982 7.044,-2.541 2.195,-1.656 3.619,-4.18 4.298,-6.813 0.308,-1.191 0.452,-2.415 0.542,-3.639 0.015,-6.791 0,-13.579 0.009,-20.374 0.081,-0.636 -0.52,-1.229 -1.152,-1.187 -2.989,-0.013 -5.969,-0.006 -8.96,-0.004 -0.599,-0.046 -1.203,0.433 -1.18,1.053 -0.012,5.797 -0.006,11.596 -0.006,17.387 -0.021,1.446 0.095,2.913 -0.272,4.324 C 9.056,-9.213 8.541,-8.365 7.756,-7.851 6.778,-7.272 5.59,-7.123 4.484,-7.286 2.974,-7.47 1.525,-8.106 0.35,-9.077 0.128,-9.254 -0.057,-9.512 -0.027,-9.808 v -21.195 c -0.006,-0.381 0.033,-0.765 -0.046,-1.144 -0.149,-0.477 -0.656,-0.747 -1.136,-0.722 -2.99,-0.025 -5.981,0.042 -8.976,0.019 -0.627,-0.074 -1.179,0.546 -1.146,1.148 -0.006,10.559 -0.006,21.114 -0.006,31.667 -0.017,0.598 0.536,1.184 1.146,1.132 C -7.15,1.096 -4.109,1.106 -1.068,1.092 -0.49,1.092 -0.01,0.571 0,0"
       style="fill:#231f20;fill-opacity:1;fill-rule:nonzero;stroke:none"
       transform="matrix(1.3333333,0,0,-1.3333333,215.6016,31.638667)"
       clip-path="url(#clipPath139)" />
    <path
       id="path140"
       d="m 0,0 c 1.074,0.103 2.166,0.016 3.242,0.046 2.038,0 4.076,-0.002 6.115,0 0.616,0.065 1.236,-0.498 1.184,-1.127 v -31.797 c 0.023,-0.616 -0.583,-1.088 -1.175,-1.046 -2.986,-0.014 -5.981,0.046 -8.97,0.013 -0.635,-0.074 -1.219,0.553 -1.165,1.171 0.005,10.554 0,21.101 0.005,31.65 C -0.786,-0.611 -0.446,-0.157 0,0"
       style="fill:#231f20;fill-opacity:1;fill-rule:nonzero;stroke:none"
       transform="matrix(1.3333333,0,0,-1.3333333,178.6816,30.234)"
       clip-path="url(#clipPath141)" />
    <path
       id="path142"
       d="m 0,0 c -0.021,0.025 -0.073,0.077 -0.098,0.101 -0.038,1.513 0.275,3.182 1.386,4.294 0.697,0.756 1.72,1.1 2.71,1.266 1.552,0.122 3.296,0.1 4.551,-0.96 1.33,-1.143 1.674,-3.032 1.628,-4.704 C 6.783,-0.003 3.391,-0.013 0,0 m 21.472,-5.118 c -0.055,2.301 0.141,4.621 -0.174,6.907 -0.395,2.818 -1.6,5.574 -3.648,7.585 -1.654,1.669 -3.774,2.846 -6.024,3.501 -2.644,0.801 -5.447,0.97 -8.191,0.782 C 0.894,13.426 -1.651,12.852 -3.924,11.663 -6.215,10.5 -8.226,8.728 -9.536,6.502 c -1.282,-2.103 -1.88,-4.585 -1.889,-7.036 -0.032,-1.434 -0.008,-2.875 -0.015,-4.31 0.013,-1.769 -0.077,-3.568 0.331,-5.305 0.541,-2.59 1.935,-4.976 3.864,-6.781 1.671,-1.54 3.683,-2.704 5.838,-3.427 2.565,-0.888 5.299,-1.229 8.006,-1.162 4.47,0.041 8.967,0.714 13.164,2.291 0.554,0.17 0.863,0.804 0.714,1.355 -0.274,0.955 -0.573,1.896 -0.813,2.863 l -0.054,0.092 c -0.302,1.048 -0.595,2.101 -0.938,3.133 -0.233,0.731 -1.146,0.764 -1.753,0.538 -0.176,-0.049 -0.352,-0.1 -0.529,-0.144 -3.294,-0.758 -6.674,-1.269 -10.063,-1.135 -1.381,0.09 -2.789,0.31 -4.036,0.939 -0.978,0.479 -1.74,1.338 -2.12,2.354 -0.163,0.606 -0.301,1.231 -0.276,1.861 6.579,0.017 13.157,0.006 19.734,0.006 0.509,0.017 1.128,-0.095 1.503,0.34 0.511,0.499 0.294,1.274 0.34,1.908"
       style="fill:#231f20;fill-opacity:1;fill-rule:nonzero;stroke:none"
       transform="matrix(1.3333333,0,0,-1.3333333,51.8104,47.680667)"
       clip-path="url(#clipPath143)" />
    <path
       id="path144"
       d="m 0,0 c -0.163,-0.021 -0.329,-0.042 -0.486,-0.067 -1.615,-0.276 -3.261,-0.499 -4.895,-0.341 -0.961,0.127 -1.891,0.724 -2.188,1.681 -0.239,0.932 -0.128,1.908 -0.137,2.859 0.137,0.818 0.516,1.674 1.284,2.07 0.851,0.523 1.869,0.452 2.819,0.504 C -2.924,6.662 -2.239,6.66 -1.56,6.711 -1.041,6.662 -0.515,6.678 0.01,6.675 0.006,4.449 0.021,2.224 0,0 m 9.094,20.748 c -1.361,2.033 -3.36,3.591 -5.592,4.563 -2.53,1.094 -5.312,1.506 -8.055,1.513 -3.645,-0.019 -7.299,-0.516 -10.806,-1.532 -0.398,-0.114 -0.852,-0.222 -1.087,-0.593 -0.261,-0.332 -0.257,-0.782 -0.117,-1.162 0.519,-1.654 1.037,-3.305 1.554,-4.961 0.155,-0.483 0.266,-1.075 0.769,-1.326 0.517,-0.304 1.093,-0.006 1.619,0.123 2.006,0.541 4.088,0.837 6.166,0.856 1.349,0.005 2.729,-0.022 4.015,-0.459 0.834,-0.281 1.61,-0.83 1.983,-1.641 0.446,-0.976 0.472,-2.075 0.472,-3.129 -2.11,-0.008 -4.221,0 -6.336,-0.005 -2.411,0.033 -4.905,-0.155 -7.117,-1.187 -2.023,-0.919 -3.714,-2.563 -4.639,-4.588 -1.158,-2.503 -1.37,-5.389 -0.807,-8.07 0.434,-2.07 1.542,-4.03 3.247,-5.306 2.033,-1.56 4.639,-2.111 7.155,-2.261 2.862,-0.093 5.845,0.19 8.446,1.489 0.239,-0.382 0.536,-0.857 1.05,-0.847 3.078,0.013 6.159,0.005 9.242,0.007 0.514,-0.046 0.93,0.37 1.081,0.835 v 20.748 c -0.163,2.444 -0.852,4.897 -2.243,6.933"
       style="fill:#231f20;fill-opacity:1;fill-rule:nonzero;stroke:none"
       transform="matrix(1.3333333,0,0,-1.3333333,273.2856,65.081333)"
       clip-path="url(#clipPath145)" />
    <path
       id="path146"
       d="M 281.465,93.45 H 2 V 29.541 h 279.465 z m 2,-65.909 H 0 v 67.91 h 283.465 z"
       style="fill:#231f20;fill-opacity:1;fill-rule:nonzero;stroke:none"
       transform="matrix(1.3333333,0,0,-1.3333333,0,127.268)"
       clip-path="url(#clipPath147)" />
    <path
       id="path148"
       d="M 0,0 88.057,4.615 85.899,45.793 -2.158,41.178 Z"
       style="fill:#ffffff;fill-opacity:1;fill-rule:nonzero;stroke:none"
       transform="matrix(1.3333333,0,0,-1.3333333,215.9828,126.93533)"
       clip-path="url(#clipPath149)" />
    <path
       id="path150"
       d="M 0,0 25.675,1.346 23.534,42.204 -2.141,40.858 Z"
       style="fill:#918f90;fill-opacity:1;fill-rule:nonzero;stroke:none"
       transform="matrix(1.3333333,0,0,-1.3333333,332.9664,120.52893)"
       clip-path="url(#clipPath151)" />
    <path
       id="path152"
       d="M 0,0 115.073,6.031 112.893,47.635 -2.18,41.604 Z M -0.131,39.91 110.982,45.565 113.024,7.725 1.911,2.07 Z"
       style="fill:#231f20;fill-opacity:1;fill-rule:nonzero;stroke:none"
       transform="matrix(1.3333333,0,0,-1.3333333,215.03453,127.26987)"
       clip-path="url(#clipPath153)" />
    <path
       id="path154"
       d="m 0,0 -5.13,7.497 -4.317,-7.992 -6.952,-0.364 7.254,12.84 -8.266,11.659 6.901,0.362 4.89,-7.143 4.116,7.615 6.902,0.361 L -1.605,12.377 6.952,0.364 Z"
       style="fill:#231f20;fill-opacity:1;fill-rule:nonzero;stroke:none"
       transform="matrix(1.3333333,0,0,-1.3333333,247.15987,114.0312)"
       clip-path="url(#clipPath155)" />
    <path
       id="path156"
       d="m 0,0 -8.557,12.012 7.003,12.459 -6.902,-0.362 -4.116,-7.615 -4.89,7.143 -6.902,-0.361 8.267,-11.659 -7.255,-12.841 6.953,0.365 4.317,7.991 5.13,-7.496 z"
       style="fill:#231f20;fill-opacity:1;fill-rule:nonzero;stroke:none"
       transform="matrix(1.3333333,0,0,-1.3333333,326.53293,109.87147)"
       clip-path="url(#clipPath157)" />
    <path
       id="path158"
       d="m 0,0 -8.557,12.012 7.003,12.459 -6.902,-0.362 -4.116,-7.615 -4.89,7.143 -6.902,-0.361 8.267,-11.659 -7.255,-12.841 6.953,0.365 4.317,7.991 5.13,-7.496 z"
       style="fill:#231f20;fill-opacity:1;fill-rule:nonzero;stroke:none"
       transform="matrix(1.3333333,0,0,-1.3333333,291.58173,111.7032)"
       clip-path="url(#clipPath159)" />
    <path
       id="path160"
       d="m 0,0 -8.176,-0.428 -0.988,18.862 -6.012,-0.315 1.281,-24.442 14.187,0.743 z"
       style="fill:#ffffff;fill-opacity:1;fill-rule:nonzero;stroke:none"
       transform="matrix(1.3333333,0,0,-1.3333333,358.1836,100.75267)"
       clip-path="url(#clipPath161)" />
  </g>
  <g
     id="layer-MC6"
     inkscape:groupmode="layer"
     inkscape:label="CMYK">
    <path
       id="path162"
       d="M 1.242,29.011 H 282.596 V 94.322 H 1.242 Z"
       style="fill:#fff200;fill-opacity:1;fill-rule:nonzero;stroke:none"
       transform="matrix(1.3333333,0,0,-1.3333333,0,127.268)" />
    <path
       id="path163"
       d="m 0,0 c 3.112,0.049 6.229,0.003 9.341,0.022 0.639,0.077 1.187,-0.557 1.15,-1.171 0,-14.126 -0.004,-28.252 0,-42.379 -0.013,-0.44 0.089,-0.957 -0.256,-1.303 -0.236,-0.33 -0.647,-0.444 -1.036,-0.425 -2.948,0.004 -5.896,-0.008 -8.842,0.005 -0.59,-0.045 -1.207,0.421 -1.161,1.047 -0.005,14.395 -0.003,28.787 -0.003,43.182 C -0.836,-0.541 -0.461,-0.098 0,0"
       style="fill:#121722;fill-opacity:1;fill-rule:nonzero;stroke:none"
       transform="matrix(1.3333333,0,0,-1.3333333,17.743867,15.129733)"
       clip-path="url(#clipPath164)" />
    <path
       id="path165"
       d="m 0,0 c 0.217,0.207 0.519,0.253 0.813,0.243 3.763,-0.006 7.519,0 11.284,-0.004 0.633,0.06 1.12,-0.562 1.125,-1.154 0.01,-1.456 0,-2.911 0.004,-4.367 0.044,-0.639 -0.482,-1.305 -1.146,-1.283 -3.755,-0.005 -7.508,0 -11.267,-0.003 -0.691,-0.057 -1.247,0.601 -1.232,1.264 -0.048,1.421 0.017,2.84 -0.011,4.259 C -0.35,-0.679 -0.329,-0.244 0,0"
       style="fill:#121722;fill-opacity:1;fill-rule:nonzero;stroke:none"
       transform="matrix(1.3333333,0,0,-1.3333333,176.67093,15.4244)"
       clip-path="url(#clipPath166)" />
    <path
       id="path167"
       d="m 0,0 c 2.896,0.858 5.962,0.962 8.963,0.783 2.475,-0.155 4.937,-0.541 7.345,-1.133 0.924,-0.237 1.826,-0.525 2.729,-0.837 0.432,-0.136 0.872,-0.487 0.878,-0.974 0.061,-0.611 -0.256,-1.16 -0.406,-1.733 -0.462,-1.513 -0.986,-3.008 -1.41,-4.53 -0.144,-0.378 -0.433,-0.726 -0.84,-0.824 -0.423,-0.105 -0.835,0.082 -1.225,0.214 -0.074,0.019 -0.224,0.058 -0.294,0.077 -2.606,0.742 -5.285,1.357 -8.009,1.307 -1.026,0.006 -2.109,0.041 -3.057,-0.41 -1.217,-0.533 -1.337,-2.476 -0.258,-3.21 0.783,-0.486 1.741,-0.543 2.639,-0.573 2.486,0.052 4.992,-0.387 7.28,-1.384 2.862,-1.247 5.275,-3.676 6.142,-6.72 0.698,-2.467 0.704,-5.188 -0.272,-7.577 -0.6,-1.445 -1.62,-2.696 -2.834,-3.668 -1.459,-1.185 -3.22,-1.939 -5.023,-2.44 -1.983,-0.536 -4.049,-0.797 -6.105,-0.758 -4.518,-0.042 -9.111,0.369 -13.379,1.917 -0.612,0.218 -0.848,0.969 -0.617,1.541 0.552,1.812 1.122,3.617 1.657,5.437 0.09,0.407 0.308,0.824 0.718,0.991 0.38,0.253 0.821,0.044 1.215,-0.055 2.481,-0.624 5.014,-1.048 7.56,-1.271 1.128,-0.063 2.259,-0.046 3.389,-0.046 0.935,0.032 2.005,0.23 2.592,1.037 0.359,0.468 0.356,1.087 0.297,1.645 -0.163,0.359 -0.299,0.759 -0.645,0.981 -0.844,0.595 -1.929,0.614 -2.924,0.601 -1.269,0.072 -2.546,0.097 -3.79,0.38 -2.7,0.538 -5.327,1.786 -7.189,3.851 -1.813,1.98 -2.758,4.69 -2.701,7.362 -0.038,2.097 0.451,4.241 1.631,5.997 1.318,1.962 3.437,3.226 5.647,3.954 C -0.223,-0.054 -0.074,-0.016 0,0"
       style="fill:#121722;fill-opacity:1;fill-rule:nonzero;stroke:none"
       transform="matrix(1.3333333,0,0,-1.3333333,94.8344,30.4624)"
       clip-path="url(#clipPath168)" />
    <path
       id="path169"
       d="m 0,0 c 2.889,1.166 6.014,1.982 9.149,1.672 1.099,-0.087 2.183,-0.329 3.236,-0.652 2.535,-0.8 4.78,-2.501 6.197,-4.757 1.295,-2.021 1.928,-4.396 2.161,-6.765 0.169,-2.624 0.058,-5.249 0.1,-7.873 -0.059,-2.264 0.058,-4.531 -0.042,-6.796 0.095,-1.761 -0.017,-3.521 0.042,-5.282 -0.027,-0.564 0.063,-1.15 -0.1,-1.703 -0.166,-0.469 -0.658,-0.748 -1.142,-0.716 -2.994,0 -5.986,-0.015 -8.981,0.006 -0.619,-0.038 -1.177,0.559 -1.119,1.171 0.005,6.206 0,12.407 0,18.607 0.005,1.169 0,2.37 -0.423,3.476 C 8.716,-8.587 7.866,-7.745 6.816,-7.451 5.101,-6.943 3.237,-7.362 1.683,-8.16 1.04,-8.468 0.484,-8.919 -0.028,-9.402 c -0.04,-7.477 0,-14.956 -0.021,-22.432 -0.007,-0.431 -0.344,-0.779 -0.698,-0.973 -0.368,-0.095 -0.75,-0.065 -1.122,-0.071 -2.807,0.004 -5.62,0.041 -8.422,0.031 -0.557,-0.04 -1.091,0.465 -1.041,1.028 -0.006,10.636 -0.006,21.275 0,31.912 -0.033,0.478 0.389,0.818 0.78,1 C -7.43,1.1 -4.305,1.096 -1.184,1.096 -0.562,1.144 -0.074,0.58 0,0"
       style="fill:#121722;fill-opacity:1;fill-rule:nonzero;stroke:none"
       transform="matrix(1.3333333,0,0,-1.3333333,142.404,31.637333)"
       clip-path="url(#clipPath170)" />
    <path
       id="path171"
       d="m 0,0 c 2.846,1.1 5.887,1.97 8.966,1.685 2.522,-0.171 5.035,-0.982 7.044,-2.541 2.195,-1.656 3.619,-4.18 4.298,-6.813 0.308,-1.191 0.452,-2.415 0.542,-3.639 0.015,-6.791 0,-13.579 0.009,-20.374 0.081,-0.636 -0.52,-1.229 -1.152,-1.187 -2.989,-0.013 -5.969,-0.006 -8.96,-0.004 -0.599,-0.046 -1.203,0.433 -1.18,1.053 -0.012,5.797 -0.006,11.596 -0.006,17.387 -0.021,1.446 0.095,2.913 -0.272,4.324 C 9.056,-9.213 8.541,-8.365 7.756,-7.851 6.778,-7.272 5.59,-7.123 4.484,-7.286 2.974,-7.47 1.525,-8.106 0.35,-9.077 0.128,-9.254 -0.057,-9.512 -0.027,-9.808 v -21.195 c -0.006,-0.381 0.033,-0.765 -0.046,-1.144 -0.149,-0.477 -0.656,-0.747 -1.136,-0.722 -2.99,-0.025 -5.981,0.042 -8.976,0.019 -0.627,-0.074 -1.179,0.546 -1.146,1.148 -0.006,10.559 -0.006,21.114 -0.006,31.667 -0.017,0.598 0.536,1.184 1.146,1.132 C -7.15,1.096 -4.109,1.106 -1.068,1.092 -0.49,1.092 -0.01,0.571 0,0"
       style="fill:#121722;fill-opacity:1;fill-rule:nonzero;stroke:none"
       transform="matrix(1.3333333,0,0,-1.3333333,215.6016,31.638667)"
       clip-path="url(#clipPath172)" />
    <path
       id="path173"
       d="m 0,0 c 1.074,0.103 2.166,0.016 3.242,0.046 2.038,0 4.076,-0.002 6.115,0 0.616,0.065 1.236,-0.498 1.184,-1.127 v -31.797 c 0.023,-0.616 -0.583,-1.088 -1.175,-1.046 -2.986,-0.014 -5.981,0.046 -8.97,0.013 -0.635,-0.074 -1.219,0.553 -1.165,1.171 0.005,10.554 0,21.101 0.005,31.65 C -0.786,-0.611 -0.446,-0.157 0,0"
       style="fill:#121722;fill-opacity:1;fill-rule:nonzero;stroke:none"
       transform="matrix(1.3333333,0,0,-1.3333333,178.6816,30.234)"
       clip-path="url(#clipPath174)" />
    <path
       id="path175"
       d="m 0,0 c -0.021,0.025 -0.073,0.077 -0.098,0.101 -0.038,1.513 0.275,3.182 1.386,4.294 0.697,0.756 1.72,1.1 2.71,1.266 1.552,0.122 3.296,0.1 4.551,-0.96 1.33,-1.143 1.674,-3.032 1.628,-4.704 C 6.783,-0.003 3.391,-0.013 0,0 m 21.472,-5.118 c -0.055,2.301 0.141,4.621 -0.174,6.907 -0.395,2.818 -1.6,5.574 -3.648,7.585 -1.654,1.669 -3.774,2.846 -6.024,3.501 -2.644,0.801 -5.447,0.97 -8.191,0.782 C 0.894,13.426 -1.651,12.852 -3.924,11.663 -6.215,10.5 -8.226,8.728 -9.536,6.502 c -1.282,-2.103 -1.88,-4.585 -1.889,-7.036 -0.032,-1.434 -0.008,-2.875 -0.015,-4.31 0.013,-1.769 -0.077,-3.568 0.331,-5.305 0.541,-2.59 1.935,-4.976 3.864,-6.781 1.671,-1.54 3.683,-2.704 5.838,-3.427 2.565,-0.888 5.299,-1.229 8.006,-1.162 4.47,0.041 8.967,0.714 13.164,2.291 0.554,0.17 0.863,0.804 0.714,1.355 -0.274,0.955 -0.573,1.896 -0.813,2.863 l -0.054,0.092 c -0.302,1.048 -0.595,2.101 -0.938,3.133 -0.233,0.731 -1.146,0.764 -1.753,0.538 -0.176,-0.049 -0.352,-0.1 -0.529,-0.144 -3.294,-0.758 -6.674,-1.269 -10.063,-1.135 -1.381,0.09 -2.789,0.31 -4.036,0.939 -0.978,0.479 -1.74,1.338 -2.12,2.354 -0.163,0.606 -0.301,1.231 -0.276,1.861 6.579,0.017 13.157,0.006 19.734,0.006 0.509,0.017 1.128,-0.095 1.503,0.34 0.511,0.499 0.294,1.274 0.34,1.908"
       style="fill:#121722;fill-opacity:1;fill-rule:nonzero;stroke:none"
       transform="matrix(1.3333333,0,0,-1.3333333,51.8104,47.680667)"
       clip-path="url(#clipPath176)" />
    <path
       id="path177"
       d="m 0,0 c -0.163,-0.021 -0.329,-0.042 -0.486,-0.067 -1.615,-0.276 -3.261,-0.499 -4.895,-0.341 -0.961,0.127 -1.891,0.724 -2.188,1.681 -0.239,0.932 -0.128,1.908 -0.137,2.859 0.137,0.818 0.516,1.674 1.284,2.07 0.851,0.523 1.869,0.452 2.819,0.504 C -2.924,6.662 -2.239,6.66 -1.56,6.711 -1.041,6.662 -0.515,6.678 0.01,6.675 0.006,4.449 0.021,2.224 0,0 m 9.094,20.748 c -1.361,2.033 -3.36,3.591 -5.592,4.563 -2.53,1.094 -5.312,1.506 -8.055,1.513 -3.645,-0.019 -7.299,-0.516 -10.806,-1.532 -0.398,-0.114 -0.852,-0.222 -1.087,-0.593 -0.261,-0.332 -0.257,-0.782 -0.117,-1.162 0.519,-1.654 1.037,-3.305 1.554,-4.961 0.155,-0.483 0.266,-1.075 0.769,-1.326 0.517,-0.304 1.093,-0.006 1.619,0.123 2.006,0.541 4.088,0.837 6.166,0.856 1.349,0.005 2.729,-0.022 4.015,-0.459 0.834,-0.281 1.61,-0.83 1.983,-1.641 0.446,-0.976 0.472,-2.075 0.472,-3.129 -2.11,-0.008 -4.221,0 -6.336,-0.005 -2.411,0.033 -4.905,-0.155 -7.117,-1.187 -2.023,-0.919 -3.714,-2.563 -4.639,-4.588 -1.158,-2.503 -1.37,-5.389 -0.807,-8.07 0.434,-2.07 1.542,-4.03 3.247,-5.306 2.033,-1.56 4.639,-2.111 7.155,-2.261 2.862,-0.093 5.845,0.19 8.446,1.489 0.239,-0.382 0.536,-0.857 1.05,-0.847 3.078,0.013 6.159,0.005 9.242,0.007 0.514,-0.046 0.93,0.37 1.081,0.835 v 20.748 c -0.163,2.444 -0.852,4.897 -2.243,6.933"
       style="fill:#121722;fill-opacity:1;fill-rule:nonzero;stroke:none"
       transform="matrix(1.3333333,0,0,-1.3333333,273.2856,65.081333)"
       clip-path="url(#clipPath178)" />
    <path
       id="path179"
       d="M 281.465,93.45 H 2 V 29.541 h 279.465 z m 2,-65.909 H 0 v 67.91 h 283.465 z"
       style="fill:#121722;fill-opacity:1;fill-rule:nonzero;stroke:none"
       transform="matrix(1.3333333,0,0,-1.3333333,0,127.268)"
       clip-path="url(#clipPath180)" />
    <path
       id="path181"
       d="M 0,0 88.057,4.615 85.899,45.793 -2.158,41.178 Z"
       style="fill:#ffffff;fill-opacity:1;fill-rule:nonzero;stroke:none"
       transform="matrix(1.3333333,0,0,-1.3333333,215.9828,126.93533)"
       clip-path="url(#clipPath182)" />
    <path
       id="path183"
       d="M 0,0 25.675,1.346 23.534,42.204 -2.141,40.858 Z"
       style="fill:#ed1c24;fill-opacity:1;fill-rule:nonzero;stroke:none"
       transform="matrix(1.3333333,0,0,-1.3333333,332.9664,120.52893)"
       clip-path="url(#clipPath184)" />
    <path
       id="path185"
       d="M 0,0 115.073,6.031 112.893,47.635 -2.18,41.604 Z M -0.131,39.91 110.982,45.565 113.024,7.725 1.911,2.07 Z"
       style="fill:#121722;fill-opacity:1;fill-rule:nonzero;stroke:none"
       transform="matrix(1.3333333,0,0,-1.3333333,215.03453,127.26987)"
       clip-path="url(#clipPath186)" />
    <path
       id="path187"
       d="m 0,0 -5.13,7.497 -4.317,-7.992 -6.952,-0.364 7.254,12.84 -8.266,11.659 6.901,0.362 4.89,-7.143 4.116,7.615 6.902,0.361 L -1.605,12.377 6.952,0.364 Z"
       style="fill:#121722;fill-opacity:1;fill-rule:nonzero;stroke:none"
       transform="matrix(1.3333333,0,0,-1.3333333,247.15987,114.0312)"
       clip-path="url(#clipPath188)" />
    <path
       id="path189"
       d="m 0,0 -8.557,12.012 7.003,12.459 -6.902,-0.362 -4.116,-7.615 -4.89,7.143 -6.902,-0.361 8.267,-11.659 -7.255,-12.841 6.953,0.365 4.317,7.991 5.13,-7.496 z"
       style="fill:#121722;fill-opacity:1;fill-rule:nonzero;stroke:none"
       transform="matrix(1.3333333,0,0,-1.3333333,326.53293,109.87147)"
       clip-path="url(#clipPath190)" />
    <path
       id="path191"
       d="m 0,0 -8.557,12.012 7.003,12.459 -6.902,-0.362 -4.116,-7.615 -4.89,7.143 -6.902,-0.361 8.267,-11.659 -7.255,-12.841 6.953,0.365 4.317,7.991 5.13,-7.496 z"
       style="fill:#121722;fill-opacity:1;fill-rule:nonzero;stroke:none"
       transform="matrix(1.3333333,0,0,-1.3333333,291.58173,111.7032)"
       clip-path="url(#clipPath192)" />
    <path
       id="path193"
       d="m 0,0 -8.176,-0.428 -0.988,18.862 -6.012,-0.315 1.281,-24.442 14.187,0.743 z"
       style="fill:#ffffff;fill-opacity:1;fill-rule:nonzero;stroke:none"
       transform="matrix(1.3333333,0,0,-1.3333333,358.1836,100.75267)"
       clip-path="url(#clipPath194)" />
  </g>
</svg>
