<?xml version="1.0" encoding="UTF-8" standalone="no"?>
<svg
   xmlns:dc="http://purl.org/dc/elements/1.1/"
   xmlns:cc="http://creativecommons.org/ns#"
   xmlns:rdf="http://www.w3.org/1999/02/22-rdf-syntax-ns#"
   xmlns:svg="http://www.w3.org/2000/svg"
   xmlns="http://www.w3.org/2000/svg"
   version="1.1"
   id="svg13796"
   viewBox="0 0 415.73252 203.95625"
   height="57.560986mm"
   width="117.32896mm">
  <defs
     id="defs13798">
    <clipPath
       id="clipPath12476"
       clipPathUnits="userSpaceOnUse">
      <path
         id="path12478"
         d="m 445.566,1061.01 332.586,0 0,163.165 -332.586,0 0,-163.165 z" />
    </clipPath>
  </defs>
  <metadata
     id="metadata13801">
    <rdf:RDF>
      <cc:Work
         rdf:about="">
        <dc:format>image/svg+xml</dc:format>
        <dc:type
           rdf:resource="http://purl.org/dc/dcmitype/StillImage" />
        <dc:title></dc:title>
      </cc:Work>
    </rdf:RDF>
  </metadata>
  <g
     transform="translate(-234.19207,-391.70212)"
     id="layer1">
    <path
       id="path12454"
       style="fill:#eb6a0b;fill-opacity:1;fill-rule:nonzero;stroke:none"
       d="m 234.19207,595.65837 415.73251,0 0,-203.95625 -415.73251,0 0,203.95625 z" />
    <path
       d="m 274.0897,438.44825 -0.70625,78.46 15.7125,12.0525 66.2375,0 0,-21.625 -14.165,-11.475 -15.84375,0 0,-45.8975 -14.61125,-11.83625 -36.62375,0.32125 z"
       style="fill:#000000;fill-opacity:1;fill-rule:nonzero;stroke:none"
       id="path12458" />
    <path
       d="m 277.25982,441.79762 -0.265,73.04 61.1275,0 0,-15.93625 -30.01,0.0488 0,-57.56 -30.8525,0.4075 z"
       style="fill:#ffffff;fill-opacity:1;fill-rule:nonzero;stroke:none"
       id="path12462" />
    <path
       d="m 357.95995,437.81012 0,79.335 16.16625,12.3625 36.40625,0 0,-79.19875 -14.67125,-12.49875 -37.90125,0 z"
       style="fill:#000000;fill-opacity:1;fill-rule:nonzero;stroke:none"
       id="path12466" />
    <path
       d="m 361.62771,441.614 0,72.95 31.5175,0 0,-73.22125 -31.5175,0.27125 z"
       style="fill:#ffffff;fill-opacity:1;fill-rule:nonzero;stroke:none"
       id="path12470" />
    <path
       d="m 419.49795,437.81015 0,79.06375 16.16625,12.4975 37.08625,-0.13625 0,-30.42875 c 0,0 17.56625,13.585 36.81375,-2.445 11.41375,-9.5075 9.00625,-31.15 -2.44625,-40.3475 -9.74875,-7.82875 -19.28875,-18.20375 -34.77625,-18.20375 l -52.84375,0 z"
       style="fill:#000000;fill-opacity:1;fill-rule:nonzero;stroke:none"
       id="path12482" />
    <path
       d="m 423.77708,442.08953 0,72.33875 30.905,0 0,-32.875 c 0,0 12.09,12.4975 29.3425,6.65625 15.5575,-5.2675 21.3525,-23.53 9.645,-37.2225 -8.015,-9.3725 -19.69625,-9.23625 -23.90875,-9.23625 -4.2125,0 -45.98375,0.33875 -45.98375,0.33875"
       style="fill:#ffffff;fill-opacity:1;fill-rule:nonzero;stroke:none"
       id="path12486" />
    <path
       d="m 454.13771,457.50815 0,16.845 c 0,0 10.325,1.9025 11.955,-4.21125 1.63,-6.1125 0.37875,-10.96625 -2.98875,-12.3625 -2.785,-1.15375 -8.96625,-0.27125 -8.96625,-0.27125"
       style="fill:#000000;fill-opacity:1;fill-rule:nonzero;stroke:none"
       id="path12490" />
    <path
       d="m 617.15395,481.41715 c -3.7075,-18.79375 -25.675,-34.0975 -30.29375,-36.95 -2.07875,-1.28375 -5.74875,-2.97 -9.775,-4.4125 -2.48875,-1 -5.095,-1.77125 -7.795,-2.2825 -2.335,-0.50875 -4.52875,-0.79625 -6.32625,-0.72125 -0.0112,0 -0.0237,0.006 -0.0362,0.006 -0.52,-0.0187 -1.04,-0.0387 -1.565,-0.0387 -23.16,0 -41.93375,18.63625 -41.93375,41.625 0,10.795 4.14,20.63 10.93,28.02625 0.001,0.001 0.001,0.002 0.001,0.004 6.64375,9.385 20.52875,18.725 34.35625,22.29125 15.01125,3.87125 35.99875,-2.85375 44.015,-13.9925 0,0 12.36125,-13.585 8.4225,-33.555"
       style="fill:#000000;fill-opacity:1;fill-rule:nonzero;stroke:none"
       id="path12494" />
    <path
       d="m 600.17345,478.42878 c 0,21.0075 -17.36375,38.03625 -38.78375,38.03625 -21.42125,0 -38.785,-17.02875 -38.785,-38.03625 0,-21.0075 17.36375,-38.03625 38.78375,-38.03625 21.42125,0 38.785,17.02875 38.785,38.03625"
       style="fill:#ffffff;fill-opacity:1;fill-rule:nonzero;stroke:none"
       id="path12498" />
    <path
       d="m 567.84145,477.31977 c 0,4.51375 -3.58875,8.17375 -8.01375,8.17375 -4.4275,0 -8.01625,-3.66 -8.01625,-8.17375 0,-4.5125 3.58875,-8.1725 8.01625,-8.1725 4.425,0 8.01375,3.66 8.01375,8.1725"
       style="fill:#000000;fill-opacity:1;fill-rule:nonzero;stroke:none"
       id="path12502" />
    <path
       d="m 275.42308,536.40728 15.4275,0 0,5.53 -8.735,0 0,4.3675 8.2425,0 0,5.38875 -8.2425,0 0,4.2625 8.735,0 0,5.635 -15.4275,0 0,-25.18375 z"
       style="fill:#ffffff;fill-opacity:1;fill-rule:nonzero;stroke:none"
       id="path12506" />
    <path
       id="path12508"
       style="fill:#ffffff;fill-opacity:1;fill-rule:nonzero;stroke:none"
       d="m 295.14708,544.2259 6.12875,0 0,17.365 -6.12875,0 0,-17.365 z m 3.065,-8.805 c 1.86625,0 3.38,1.48 3.38,3.38125 0,1.9025 -1.54875,3.41625 -3.38,3.41625 -1.9025,0 -3.3825,-1.61875 -3.3825,-3.41625 0,-1.8325 1.515,-3.38125 3.3825,-3.38125" />
    <path
       d="m 305.96021,544.2264 5.6,0 0,3.5225 c 1.65625,-2.8525 3.6275,-4.085 6.6575,-4.085 2.25375,0 4.085,0.77375 5.1425,2.1125 1.1625,1.48 1.2675,3.38125 1.2675,5.8825 l 0,9.9325 -6.12875,0 0,-9.29875 c 0,-2.7125 -0.81,-3.98 -2.8525,-3.98 -2.7475,0 -3.66375,2.0775 -3.66375,5.9875 l 0,7.29125 -6.0225,0 0,-17.365 z"
       style="fill:#ffffff;fill-opacity:1;fill-rule:nonzero;stroke:none"
       id="path12512" />
    <path
       d="m 328.99558,544.2264 5.77625,0 0,4.08625 c 1.1275,-2.88875 3.275,-4.47375 5.9525,-4.47375 0.4225,0 0.98625,0.035 1.72625,0.10625 l -0.59875,5.565 c -0.74,-0.21125 -1.40875,-0.3525 -2.11375,-0.3525 -2.8875,0 -4.64875,1.76125 -4.64875,5.2475 l 0,7.18625 -6.09375,0 0,-17.365 z"
       style="fill:#ffffff;fill-opacity:1;fill-rule:nonzero;stroke:none"
       id="path12516" />
    <path
       id="path12518"
       style="fill:#ffffff;fill-opacity:1;fill-rule:nonzero;stroke:none"
       d="m 344.87958,544.2259 6.12875,0 0,17.365 -6.12875,0 0,-17.365 z m 3.065,-8.805 c 1.86625,0 3.38125,1.48 3.38125,3.38125 0,1.9025 -1.55,3.41625 -3.38125,3.41625 -1.9025,0 -3.38125,-1.61875 -3.38125,-3.41625 0,-1.8325 1.515,-3.38125 3.38125,-3.38125" />
    <path
       d="m 364.70996,548.41827 c -2.36,0 -3.98,1.655 -3.98,4.47375 0,2.60625 1.55,4.36625 4.12125,4.36625 1.3025,0 2.29,-0.4575 3.31125,-1.51375 l 0,5.31875 c -1.41,0.775 -2.85375,1.1975 -4.47375,1.1975 -5.1425,0 -8.98125,-3.5575 -8.98125,-9.33375 0,-5.46 3.76875,-9.26375 9.05125,-9.26375 1.65625,0 3.03,0.28125 4.40375,1.09125 l 0,5.1775 c -1.1625,-1.02125 -2.22,-1.51375 -3.4525,-1.51375"
       style="fill:#ffffff;fill-opacity:1;fill-rule:nonzero;stroke:none"
       id="path12522" />
    <path
       d="m 371.93083,534.92853 6.0225,0 0,9.36875 c 0,1.05625 -0.07,2.14875 -0.21125,3.135 1.585,-2.6075 3.5225,-3.76875 6.44625,-3.76875 2.25375,0 4.085,0.775 5.1425,2.11375 1.1625,1.47875 1.2675,3.38 1.2675,5.88125 l 0,9.9325 -6.12875,0 0,-9.29875 c 0,-2.71125 -0.81,-3.98 -2.8525,-3.98 -2.7475,0 -3.66375,2.0775 -3.66375,5.9875 l 0,7.29125 -6.0225,0 0,-26.6625 z"
       style="fill:#ffffff;fill-opacity:1;fill-rule:nonzero;stroke:none"
       id="path12526" />
    <path
       d="m 395.8817,548.5589 -2.60625,0 0,-4.3325 2.60625,0 0,-5.1775 6.0225,0 0,5.1775 2.60625,0 0,4.3325 -2.60625,0 0,13.0325 -6.0225,0 0,-13.0325 z"
       style="fill:#ffffff;fill-opacity:1;fill-rule:nonzero;stroke:none"
       id="path12530" />
    <path
       d="m 425.18645,553.10303 c 0,2.71125 -0.0712,4.86 -2.07875,6.86875 -1.54875,1.54875 -3.83875,2.28875 -6.90375,2.28875 -3.06375,0 -5.3175,-0.74 -6.9375,-2.28875 -1.9375,-1.8675 -2.04375,-4.05125 -2.04375,-6.86875 l 0,-8.87625 5.8475,0 0,9.26375 c 0,2.71125 0.74,4.12125 3.06375,4.12125 2.325,0 3.065,-1.41 3.065,-4.12125 l 0,-9.26375 5.9875,0 0,8.87625 z"
       style="fill:#ffffff;fill-opacity:1;fill-rule:nonzero;stroke:none"
       id="path12534" />
    <path
       d="m 429.58895,544.2264 5.6,0 0,3.5225 c 1.65625,-2.8525 3.6275,-4.085 6.6575,-4.085 2.25375,0 4.085,0.77375 5.1425,2.1125 1.1625,1.48 1.2675,3.38125 1.2675,5.8825 l 0,9.9325 -6.12875,0 0,-9.29875 c 0,-2.7125 -0.81,-3.98 -2.8525,-3.98 -2.7475,0 -3.66375,2.0775 -3.66375,5.9875 l 0,7.29125 -6.0225,0 0,-17.365 z"
       style="fill:#ffffff;fill-opacity:1;fill-rule:nonzero;stroke:none"
       id="path12538" />
    <path
       d="m 461.78195,548.5589 c -2.53625,0 -4.08625,1.655 -4.08625,4.2975 0,2.64125 1.55,4.29625 4.08625,4.29625 2.535,0 4.05,-1.655 4.05,-4.29625 0,-2.6425 -1.515,-4.2975 -4.05,-4.2975 m 9.44,12.99625 c 0,5.28375 -3.17,7.71375 -9.8275,7.71375 -5.565,0 -8.63,-2.21875 -8.805,-5.775 l 6.34,0 c 0.175,1.055 1.2325,1.725 2.92375,1.725 3.24,0 3.48625,-1.725 3.48625,-4.96625 l 0,-1.585 c -1.30375,2.18375 -3.27625,3.24 -6.0225,3.24 -4.50875,0 -7.60875,-3.4875 -7.60875,-9.1225 0,-5.52875 3.1,-9.12125 8.03125,-9.12125 2.60625,0 4.4375,1.02 5.81125,3.345 l 0,-2.7825 5.67125,0 0,17.32875 z"
       style="fill:#ffffff;fill-opacity:1;fill-rule:nonzero;stroke:none"
       id="path12542" />
    <path
       d="m 475.4832,555.4629 c 1.79625,1.585 4.085,2.43 6.19875,2.43 1.55,0 2.36,-0.52875 2.36,-1.44375 0,-1.44375 -1.40875,-1.44375 -3.69875,-2.04375 -3.5925,-0.95125 -5.2475,-2.53625 -5.2475,-5.1775 0,-3.17 2.50125,-5.565 7.04375,-5.565 2.29,0 4.545,0.52875 6.93875,1.585 l -1.2675,4.22625 c -1.69,-1.16125 -3.38125,-1.69 -5.00125,-1.69 -1.40875,0 -2.11375,0.4575 -2.11375,1.2675 0,1.19875 1.55,1.26875 3.98,2.0075 3.31125,0.98625 4.93125,2.46625 4.93125,5.2475 0,3.4875 -2.85375,5.95375 -7.4675,5.95375 -2.99375,0 -5.565,-0.66875 -7.925,-2.11375 l 1.26875,-4.68375 z"
       style="fill:#ffffff;fill-opacity:1;fill-rule:nonzero;stroke:none"
       id="path12546" />
    <path
       d="m 515.88233,552.11615 c 0,-2.7475 -0.4925,-3.98 -2.5,-3.98 -2.85375,0 -3.065,2.29 -3.065,6.09375 l 0,7.36125 -5.9175,0 0,-9.475 c 0,-2.6775 -0.4225,-3.98 -2.465,-3.98 -2.88875,0 -3.1,2.325 -3.1,6.09375 l 0,7.36125 -5.9525,0 0,-17.365 6.0225,0 0,3.03 c 1.48,-2.46625 3.27625,-3.5925 5.8475,-3.5925 2.8175,0 4.61375,1.09 5.38875,3.275 1.40875,-2.21875 3.31125,-3.275 5.9175,-3.275 2.0775,0 3.66375,0.70375 4.72,2.11375 1.09125,1.47875 1.16125,3.16875 1.16125,5.17625 l 0,0.705 0,9.9325 -6.0575,0 0,-9.475 z"
       style="fill:#ffffff;fill-opacity:1;fill-rule:nonzero;stroke:none"
       id="path12550" />
    <path
       d="m 538.98808,536.2309 c 1.37375,0 2.46625,1.0925 2.46625,2.43 0,1.445 -1.0575,2.50125 -2.46625,2.50125 -1.37375,0 -2.46625,-1.1275 -2.46625,-2.50125 0,-1.2675 1.1275,-2.43 2.46625,-2.43 m -3.5225,12.2575 c -2.5,0 -4.015,1.72625 -4.015,4.4025 0,2.71125 1.515,4.3675 4.015,4.3675 2.50125,0 4.05,-1.65625 4.05,-4.3675 0,-2.67625 -1.54875,-4.4025 -4.05,-4.4025 m -3.17,-12.2575 c 1.37375,0 2.43125,1.0925 2.43125,2.43 0,1.445 -1.0225,2.50125 -2.43125,2.50125 -1.37375,0 -2.5,-1.1275 -2.5,-2.50125 0,-1.2675 1.1625,-2.43 2.5,-2.43 m 12.61,25.325 -5.63625,0 0,-2.7825 c -1.62,2.43 -3.48625,3.48625 -6.23375,3.48625 -4.54375,0 -7.64375,-3.5925 -7.64375,-9.33375 0,-5.635 3.1,-9.2625 8.03125,-9.2625 2.60625,0 4.4375,1.05625 5.81125,3.41625 l 0,-2.85375 5.67125,0 0,17.33 z"
       style="fill:#ffffff;fill-opacity:1;fill-rule:nonzero;stroke:none"
       id="path12554" />
    <path
       d="m 549.5542,544.2264 5.77625,0 0,4.08625 c 1.1275,-2.88875 3.27625,-4.47375 5.9525,-4.47375 0.4225,0 0.98625,0.035 1.72625,0.10625 l -0.59875,5.565 c -0.74,-0.21125 -1.40875,-0.3525 -2.11375,-0.3525 -2.8875,0 -4.64875,1.76125 -4.64875,5.2475 l 0,7.18625 -6.09375,0 0,-17.365 z"
       style="fill:#ffffff;fill-opacity:1;fill-rule:nonzero;stroke:none"
       id="path12558" />
    <path
       d="m 565.29808,534.92853 6.0225,0 0,16.87 6.305,-7.5725 7.6075,0 -7.81875,8.34875 8.52375,9.01625 -8.065,0 -6.5525,-7.71375 0,7.71375 -6.0225,0 0,-26.6625 z"
       style="fill:#ffffff;fill-opacity:1;fill-rule:nonzero;stroke:none"
       id="path12562" />
    <path
       d="m 588.79095,548.5589 -2.60625,0 0,-4.3325 2.60625,0 0,-5.1775 6.0225,0 0,5.1775 2.60625,0 0,4.3325 -2.60625,0 0,13.0325 -6.0225,0 0,-13.0325 z"
       style="fill:#ffffff;fill-opacity:1;fill-rule:nonzero;stroke:none"
       id="path12566" />
    <path
       d="m 608.76158,547.39653 c -1.97125,0 -3.205,1.09125 -3.5575,3.27625 l 7.045,0 c -0.21125,-2.0075 -1.655,-3.27625 -3.4875,-3.27625 m -3.6975,6.7275 c 0.035,2.7125 1.44375,4.19125 3.90875,4.19125 1.8675,0 3.135,-0.70375 3.80375,-2.0775 l 4.61375,1.86625 c -1.09125,2.60625 -3.94375,4.15625 -8.065,4.15625 -6.34,0 -10.03875,-3.91 -10.03875,-9.1575 0,-5.24875 3.91,-9.43875 9.68625,-9.43875 5.63625,0 9.29875,3.80375 9.29875,10.17875 l 0,0.28125 -13.2075,0 z"
       style="fill:#ffffff;fill-opacity:1;fill-rule:nonzero;stroke:none"
       id="path12570" />
  </g>
</svg>
