<svg width="561" height="173" viewBox="0 0 561 173" fill="none" xmlns="http://www.w3.org/2000/svg">
<g clip-path="url(#clip0_1_12)">
<mask id="mask0_1_12" style="mask-type:luminance" maskUnits="userSpaceOnUse" x="0" y="0" width="561" height="173">
<path d="M0.00390625 0.00234107H560.022V172.228H0.00390625V0.00234107Z" fill="white"/>
</mask>
<g mask="url(#mask0_1_12)">
<path d="M560.023 13.1805C559.703 31.6572 507.411 54.1564 507.763 85.9072C508.111 116.774 558.33 133.551 559.982 157.327C560.51 164.13 554.641 171.721 546.308 171.992C526.046 172.901 503.471 102.279 474.045 112.434C446.754 121.851 429.094 170.023 405.201 172.201C397.717 172.744 391.98 165.292 392.295 157.645C393.261 134.169 448.754 119.042 448.517 85.9005C448.293 54.2164 390.891 32.6678 391.655 11.9499C391.907 5.15816 395.909 1.32098 402.329 0.49034C430.645 -3.17619 447.716 61.7921 477.266 60.5321C502.913 59.4415 522.423 0.842325 545.967 0.0130219C553.078 -0.237636 560.179 4.29419 560.023 13.1805Z" fill="#EC008C"/>
<path d="M37.7839 51.3484V64.2093H38.1052C44.0516 54.2403 52.5753 48.9352 64.4709 48.9352C74.6012 48.9352 82.6382 53.599 86.3367 63.2427C91.9619 54.4017 101.13 48.9352 111.74 48.9352C128.298 48.9352 136.176 57.4562 136.176 72.5703V106.813C136.176 111.316 137.303 113.73 141.963 113.73H147.428V126.59H101.287V113.73H103.7C108.361 113.73 109.485 111.316 109.485 106.813V77.2328C109.485 71.605 106.755 63.4053 99.3603 63.4053C90.6779 63.4053 87.7834 68.3878 87.7834 75.4636V110.029C87.7834 113.084 88.5873 113.73 93.5711 113.73H95.6617V126.59H53.058V113.73H55.3072C59.9684 113.73 61.095 111.797 61.095 106.813V77.2328C61.095 69.1918 60.1297 63.4053 50.966 63.4053C42.2837 63.4053 39.3891 70.3171 39.3891 77.8741V110.029C39.3891 112.284 40.5171 113.73 45.1783 113.73H47.7502V126.59H0.00390625V113.73H6.91299C11.5768 113.73 12.7021 111.316 12.7021 106.813V71.1237C12.7021 66.6199 11.5768 64.2093 6.91299 64.2093H0.485222V51.3484H37.7839Z" fill="#0611A9"/>
<path d="M219.929 25.94C219.929 33.0131 214.303 38.6396 207.228 38.6396C200.155 38.6396 194.529 33.0131 194.529 25.94C194.529 19.0256 200.155 13.2391 207.228 13.2391C214.303 13.2391 219.929 19.0256 219.929 25.94ZM176.36 88.963C176.36 107.936 179.736 116.13 189.382 116.13C199.03 116.13 202.406 107.936 202.406 88.963C202.406 69.9904 199.03 61.792 189.382 61.792C179.736 61.792 176.36 69.9904 176.36 88.963ZM184.561 25.94C184.561 33.0131 178.935 38.6396 171.86 38.6396C164.785 38.6396 159.159 33.0131 159.159 25.94C159.159 19.0256 164.785 13.2391 171.86 13.2391C178.935 13.2391 184.561 19.0256 184.561 25.94ZM230.861 88.963C230.861 114.683 213.339 128.992 189.382 128.992C165.429 128.992 147.904 114.683 147.904 88.963C147.904 63.2373 165.429 48.9298 189.382 48.9298C213.339 48.9298 230.861 63.2373 230.861 88.963Z" fill="#0611A9"/>
<path d="M269.301 51.3484V64.2093H269.619C275.57 54.2403 284.091 48.9352 295.989 48.9352C306.118 48.9352 314.155 53.599 317.855 63.2427C323.477 54.4017 332.641 48.9352 343.255 48.9352C359.815 48.9352 367.689 57.4562 367.689 72.5703V106.813C367.689 111.316 368.817 113.73 373.478 113.73H378.946V126.59H332.805V113.73H335.217C339.878 113.73 341.002 111.316 341.002 106.813V77.2328C341.002 71.605 338.272 63.4053 330.873 63.4053C322.193 63.4053 319.3 68.3878 319.3 75.4636V110.029C319.3 113.084 320.103 113.73 325.089 113.73H327.175V126.59H284.57V113.73H286.825C291.484 113.73 292.611 111.797 292.611 106.813V77.2328C292.611 69.1918 291.645 63.4053 282.482 63.4053C273.799 63.4053 270.905 70.3171 270.905 77.8741V110.029C270.905 112.284 272.033 113.73 276.694 113.73H279.268V126.59H231.515V113.73H238.433C243.094 113.73 244.218 111.316 244.218 106.813V71.1237C244.218 66.6199 243.094 64.2093 238.433 64.2093H231.998V51.3484H269.301Z" fill="#0611A9"/>
<path d="M428.295 89.4497C420.577 93.9522 407.553 94.9162 407.553 104.883C407.553 111.476 411.736 113.889 416.719 113.889C425.88 113.889 428.295 107.137 428.295 100.381V89.4497ZM472.184 99.0947V107.941C472.184 124.016 466.078 128.999 448.232 128.999C440.513 128.999 432.956 125.303 430.383 117.583C423.792 125.466 416.077 128.999 405.624 128.999C390.356 128.999 380.867 123.053 380.867 106.65C380.867 76.2676 428.615 94.1136 428.615 73.0517C428.615 62.4414 421.86 58.9029 413.022 58.9029C408.681 58.9029 404.178 59.5468 400.323 61.9601V62.2787C405.145 62.9227 410.449 65.4959 410.449 71.1237C410.449 78.1968 404.178 81.2527 397.747 81.2527C390.192 81.2527 383.763 76.9115 383.763 69.3558C383.763 51.5071 408.038 48.9366 421.061 48.9366C443.084 48.9366 454.982 54.0817 454.982 77.5528V107.456C454.982 112.121 455.469 113.889 458.036 113.889C461.575 113.889 463.343 111.798 463.343 102.797V99.0947H472.184Z" fill="#0611A9"/>
</g>
</g>
<defs>
<clipPath id="clip0_1_12">
<rect width="560.04" height="172.23" fill="white"/>
</clipPath>
</defs>
</svg>
