<svg xmlns="http://www.w3.org/2000/svg" width="105" height="72" viewBox="0 0 105 72">
    <g fill="none" fill-rule="evenodd">
        <path fill="#472812" d="M0 72h105V0H0z"/>
        <path fill="#FFFFFE" d="M40.286 55.962l-5.026-.747v-9.491c0-3.305.963-18.129 4.813-18.129 1.816 0 3.953 1.813 6.2 1.813 6.306 0 9.727-4.266 9.727-9.705C56 14.373 52.58 10 46.272 10c-7.698 0-10.797 8.637-13.684 14.289h-.213C32.053 19.276 30.13 14.69 27.564 10L8 16.078v6.185c5.559 0 7.804 2.346 7.804 11.09v21.862l-5.025.747V63h29.507v-7.038M81.445 10c-10.75 0-23.757 3.381-23.757 18.388 0 19.76 25.799 14.583 25.799 23.249 0 3.592-3.763 5.389-6.988 5.389-.966 0-3.546-.211-3.87-1.374-1.182-4.438-2.686-10.462-9.674-10.462-4.515 0-7.955 3.7-7.955 8.137C55 63.154 67.684 64 74.242 64 84.992 64 98 60.196 98 44.979c0-20.29-25.8-14.584-25.8-22.616 0-4.226 3.87-5.389 6.773-5.389.859 4.65 4.3 9.406 9.136 9.406 3.978 0 7.74-2.114 7.74-6.447 0-7.08-6.128-9.933-14.404-9.933"/>
    </g>
</svg>
