<svg width="1024" height="248" viewBox="0 0 1024 248" fill="none" xmlns="http://www.w3.org/2000/svg">
<g clip-path="url(#clip0_1_32)">
<path d="M97.4185 12.601H29.9755V66.4175H0V107.972H29.9755V192.439C29.9755 240.807 61.6516 245.234 90.2622 245.234C104.571 245.234 119.895 243.194 133.517 243.194V192.104C128.408 192.782 123.299 193.118 118.19 193.118C101.163 193.118 97.4185 185.969 97.4185 169.62V107.972H133.517V66.4175H97.4185V12.601Z" fill="#0611A9"/>
<path d="M212.081 134.882C215.146 115.807 226.729 105.25 246.822 105.25C264.193 105.25 276.451 118.53 276.451 134.882H212.081ZM341.168 169.967C341.168 101.155 310.853 61.9909 240.695 61.9909C184.832 61.9909 147.364 103.881 147.364 155.318C147.364 214.24 189.941 247.621 246.483 247.621C286.669 247.621 323.797 229.907 337.424 191.76H274.411C268.967 200.274 257.041 204.362 246.144 204.362C225.021 204.362 213.442 190.056 211.738 169.963L341.168 169.967Z" fill="#0611A9"/>
<path d="M775.239 154.636C775.239 105.589 745.26 61.9946 678.842 61.9946C612.425 61.9946 582.453 105.589 582.453 154.636C582.453 203.683 612.425 247.621 678.842 247.621C745.26 247.621 775.239 203.683 775.239 154.636ZM707.792 154.636C707.792 173.364 704.387 198.578 678.842 198.578C653.304 198.578 649.896 173.364 649.896 154.636C649.896 135.9 653.304 111.038 678.842 111.038C704.387 111.038 707.792 135.9 707.792 154.636Z" fill="#0611A9"/>
<path d="M778.845 243.19H858.859L880.045 199.931L901.503 243.19H982.405L917.516 150.206L973.029 66.4175H900.828L881.074 101.498L861.652 66.4175H787.403L842.928 150.206L778.845 243.19Z" fill="#ED1C24"/>
<path d="M553.268 0H485.829V85.8318H485.15C474.932 70.8516 456.882 61.9946 436.786 61.9946C377.517 61.9946 361.511 112.399 361.511 153.957C361.511 198.231 385.695 247.621 435.76 247.621C468.801 247.621 479.019 235.02 487.529 223.776H488.215V243.19H553.268V0ZM488.215 154.636C488.215 175.755 482.763 198.578 458.583 198.578C434.399 198.578 428.95 175.755 428.95 154.636C428.95 133.861 434.399 111.038 458.583 111.038C482.763 111.038 488.215 133.861 488.215 154.636Z" fill="#0611A9"/>
</g>
<defs>
<clipPath id="clip0_1_32">
<rect width="1024" height="247.621" fill="white"/>
</clipPath>
</defs>
</svg>
